<svg
 xmlns="http://www.w3.org/2000/svg"
 xmlns:xlink="http://www.w3.org/1999/xlink"
 width="42px" height="58px">
<path fill-rule="evenodd"  stroke-width="1px" stroke="rgb(249, 216, 44)" fill="rgb(255, 221, 45)"
 d="M34.999,33.862 L21.000,54.495 L6.979,33.833 C1.749,26.718 2.509,14.975 8.626,8.734 C11.931,5.361 16.325,3.503 21.000,3.503 C25.674,3.503 30.069,5.361 33.374,8.734 C39.491,14.975 40.251,26.718 34.999,33.862 ZM32.084,10.051 C29.122,7.030 25.187,5.366 21.000,5.366 C16.813,5.366 12.877,7.030 9.917,10.051 C4.396,15.684 3.716,26.289 8.460,32.744 L21.000,51.223 L33.519,32.773 C38.284,26.289 37.604,15.684 32.084,10.051 ZM21.161,27.716 C17.640,27.716 14.773,24.791 14.773,21.197 C14.773,17.603 17.640,14.678 21.161,14.678 C24.683,14.678 27.549,17.603 27.549,21.197 C27.549,24.791 24.683,27.716 21.161,27.716 ZM21.161,16.541 C18.645,16.541 16.599,18.630 16.599,21.197 C16.599,23.764 18.645,25.853 21.161,25.853 C23.677,25.853 25.724,23.764 25.724,21.197 C25.724,18.630 23.677,16.541 21.161,16.541 Z"/>
</svg>
