<svg
 xmlns="http://www.w3.org/2000/svg"
 xmlns:xlink="http://www.w3.org/1999/xlink"
 width="46px" height="31px">
<path fill-rule="evenodd"  fill="rgb(255, 221, 45)"
 d="M45.969,2.609 C45.968,1.170 44.911,-0.000 43.613,-0.000 C43.612,-0.000 43.611,-0.000 43.610,-0.000 L2.354,0.063 C1.725,0.064 1.133,0.337 0.689,0.831 C0.244,1.325 -0.000,1.982 0.001,2.680 L0.033,28.390 C0.033,29.089 0.279,29.745 0.725,30.238 C1.170,30.730 1.760,31.000 2.389,31.000 C2.390,31.000 2.391,31.000 2.392,31.000 L43.648,30.938 C44.947,30.935 46.003,29.762 46.001,28.321 L45.969,2.609 ZM41.025,2.618 L23.003,16.512 L4.946,2.672 L41.025,2.618 ZM30.624,19.135 L41.313,28.328 L4.659,28.384 L15.413,19.135 C15.927,18.692 16.021,17.871 15.622,17.301 C15.223,16.730 14.483,16.627 13.969,17.069 L2.387,27.030 L2.358,3.866 L22.335,19.177 C22.536,19.331 22.770,19.408 23.005,19.408 C23.240,19.408 23.475,19.330 23.677,19.175 L43.615,3.803 L43.645,27.026 L32.068,17.070 C31.554,16.627 30.814,16.731 30.415,17.301 C30.016,17.871 30.110,18.692 30.624,19.135 Z"/>
</svg>
