<svg
 xmlns="http://www.w3.org/2000/svg"
 xmlns:xlink="http://www.w3.org/1999/xlink"
 width="48px" height="48px">
<path fill-rule="evenodd"  fill="rgb(255, 223, 59)"
 d="M46.823,22.630 C46.813,22.630 46.793,22.630 46.783,22.630 C46.133,22.630 45.585,22.112 45.565,21.452 C45.535,20.772 46.062,20.213 46.742,20.193 C47.412,20.173 47.980,20.701 48.000,21.370 C48.021,22.041 47.493,22.609 46.823,22.630 ZM46.448,18.152 C46.346,18.183 46.245,18.193 46.144,18.193 C45.595,18.193 45.098,17.827 44.966,17.269 C44.804,16.619 45.200,15.950 45.849,15.787 C46.499,15.624 47.168,16.020 47.331,16.670 C47.493,17.320 47.097,17.990 46.448,18.152 ZM45.118,13.858 C44.936,13.949 44.753,13.990 44.571,13.990 C44.124,13.990 43.698,13.746 43.485,13.320 C43.191,12.721 43.434,11.990 44.033,11.686 C44.631,11.391 45.362,11.635 45.666,12.234 C45.971,12.833 45.727,13.564 45.118,13.858 ZM42.156,10.234 C41.800,10.234 41.455,10.071 41.212,9.777 C40.786,9.249 40.877,8.488 41.395,8.061 C41.922,7.635 42.683,7.716 43.109,8.244 C43.526,8.772 43.444,9.533 42.917,9.960 C42.693,10.142 42.430,10.234 42.156,10.234 ZM38.989,7.066 C38.726,7.066 38.452,6.975 38.229,6.792 C37.701,6.366 37.620,5.605 38.036,5.076 C38.462,4.548 39.223,4.468 39.751,4.893 C40.278,5.320 40.359,6.081 39.933,6.609 C39.700,6.914 39.345,7.066 38.989,7.066 ZM38.777,20.295 C38.919,20.955 38.493,21.594 37.833,21.737 C37.741,21.756 37.660,21.766 37.579,21.766 C37.021,21.766 36.514,21.381 36.392,20.802 C36.250,20.142 36.676,19.502 37.336,19.350 C37.995,19.208 38.634,19.635 38.777,20.295 ZM35.641,17.147 C35.245,17.147 34.860,16.954 34.626,16.609 C34.251,16.051 34.393,15.289 34.951,14.914 C35.509,14.538 36.260,14.690 36.646,15.238 C37.021,15.797 36.879,16.559 36.321,16.934 C36.108,17.076 35.874,17.147 35.641,17.147 ZM35.235,4.640 C35.052,4.640 34.860,4.599 34.687,4.508 C34.078,4.203 33.845,3.472 34.139,2.883 C34.444,2.274 35.174,2.030 35.773,2.335 C36.382,2.640 36.625,3.371 36.321,3.970 C36.108,4.396 35.682,4.640 35.235,4.640 ZM32.069,13.584 C31.836,13.584 31.602,13.523 31.389,13.381 C30.831,13.005 30.689,12.244 31.064,11.686 C31.440,11.127 32.201,10.985 32.759,11.351 C33.317,11.726 33.459,12.488 33.084,13.046 C32.840,13.401 32.465,13.584 32.069,13.584 ZM31.034,3.077 C30.933,3.077 30.831,3.066 30.730,3.036 C30.080,2.863 29.684,2.203 29.847,1.564 C30.009,0.904 30.679,0.518 31.328,0.680 C31.988,0.843 32.373,1.513 32.211,2.163 C32.069,2.711 31.582,3.077 31.034,3.077 ZM27.452,11.635 C27.371,11.635 27.279,11.625 27.198,11.604 C26.539,11.462 26.113,10.822 26.255,10.163 C26.397,9.502 27.036,9.087 27.696,9.229 C28.355,9.371 28.781,10.011 28.639,10.670 C28.518,11.239 28.020,11.635 27.452,11.635 ZM26.600,2.437 C26.590,2.437 26.579,2.437 26.559,2.437 C25.890,2.406 25.362,1.838 25.382,1.168 C25.402,0.498 25.971,-0.030 26.640,0.000 C27.320,0.021 27.838,0.589 27.817,1.259 C27.797,1.919 27.249,2.437 26.600,2.437 ZM36.798,26.447 C36.575,26.223 36.443,25.909 36.443,25.584 C36.443,25.259 36.575,24.944 36.798,24.721 C37.021,24.498 37.336,24.366 37.660,24.366 C37.975,24.366 38.289,24.487 38.523,24.721 C38.746,24.944 38.878,25.259 38.878,25.584 C38.878,25.909 38.746,26.223 38.523,26.447 C38.299,26.670 37.985,26.802 37.660,26.802 C37.336,26.802 37.021,26.670 36.798,26.447 ZM28.112,31.645 L28.355,31.411 C29.269,30.508 30.344,30.030 31.470,30.030 C32.597,30.030 33.683,30.518 34.596,31.421 C36.260,33.066 37.975,34.781 39.669,36.538 C41.567,38.446 41.557,40.934 39.649,42.863 C39.314,43.198 38.969,43.523 38.644,43.847 C37.985,44.487 37.376,45.086 36.798,45.726 C35.448,47.239 33.662,48.000 31.491,48.000 C31.308,48.000 31.125,47.990 30.933,47.980 C28.376,47.837 25.758,47.076 22.703,45.594 C17.163,42.893 12.312,39.096 8.284,34.305 C5.057,30.457 2.754,26.609 1.242,22.548 C0.572,20.752 -0.169,18.345 0.034,15.685 C0.166,13.990 0.836,12.548 2.033,11.411 C2.673,10.813 3.302,10.173 3.910,9.553 C4.337,9.127 4.763,8.691 5.199,8.264 C6.112,7.360 7.188,6.883 8.314,6.883 C9.441,6.883 10.527,7.360 11.440,8.264 C12.038,8.853 12.627,9.452 13.205,10.031 C13.469,10.294 13.743,10.569 14.007,10.832 C14.250,11.076 14.504,11.330 14.758,11.584 C15.326,12.153 15.915,12.741 16.493,13.320 C18.411,15.259 18.421,17.746 16.503,19.675 L15.915,20.264 C15.154,21.025 14.382,21.817 13.591,22.579 C14.159,23.848 14.971,25.117 16.128,26.538 C18.543,29.503 21.039,31.777 23.748,33.482 C24.103,33.706 24.489,33.898 24.905,34.102 C25.078,34.183 25.240,34.264 25.413,34.356 C26.305,33.432 27.219,32.528 28.112,31.645 ZM24.641,36.691 C24.398,36.558 24.144,36.437 23.880,36.305 C23.424,36.082 22.957,35.848 22.500,35.563 C19.558,33.716 16.869,31.269 14.281,28.091 C12.891,26.375 11.927,24.843 11.267,23.249 C10.831,22.213 11.267,21.493 11.703,21.066 C12.556,20.244 13.408,19.391 14.230,18.559 L14.819,17.960 C15.793,16.975 15.783,16.020 14.809,15.036 C14.240,14.457 13.652,13.879 13.084,13.310 C12.830,13.066 12.576,12.812 12.322,12.558 C12.048,12.285 11.785,12.020 11.511,11.747 C10.943,11.168 10.354,10.579 9.765,10.000 C9.441,9.685 8.944,9.320 8.345,9.320 C7.746,9.320 7.249,9.695 6.934,10.000 C6.518,10.406 6.092,10.843 5.676,11.259 C5.047,11.889 4.408,12.539 3.748,13.167 C2.977,13.899 2.581,14.751 2.500,15.858 C2.378,17.563 2.703,19.361 3.565,21.686 C4.976,25.482 7.137,29.086 10.192,32.721 C13.997,37.249 18.573,40.832 23.809,43.381 C26.559,44.721 28.883,45.401 31.105,45.522 C32.810,45.614 34.038,45.157 35.012,44.071 C35.641,43.360 36.321,42.710 36.970,42.071 C37.295,41.756 37.630,41.442 37.944,41.117 C38.908,40.152 38.908,39.178 38.005,38.234 C36.290,36.507 34.575,34.802 32.921,33.158 C32.607,32.853 32.100,32.477 31.511,32.477 C30.923,32.477 30.425,32.843 30.111,33.158 L29.867,33.391 C28.903,34.345 27.919,35.320 26.965,36.305 C26.559,36.731 26.092,36.944 25.585,36.944 C25.270,36.944 24.956,36.863 24.641,36.691 ZM22.419,11.554 C22.094,11.554 21.780,11.421 21.557,11.198 C21.333,10.975 21.201,10.660 21.201,10.335 C21.201,10.011 21.333,9.695 21.557,9.473 C21.780,9.249 22.094,9.117 22.419,9.117 C22.744,9.117 23.058,9.249 23.282,9.473 C23.505,9.695 23.637,10.011 23.637,10.335 C23.637,10.660 23.505,10.975 23.282,11.198 C23.058,11.421 22.744,11.554 22.419,11.554 ZM22.135,2.742 C21.810,2.742 21.496,2.619 21.272,2.386 C21.049,2.163 20.917,1.848 20.917,1.523 C20.917,1.198 21.049,0.883 21.272,0.660 C21.496,0.437 21.810,0.305 22.135,0.305 C22.460,0.305 22.774,0.437 22.997,0.660 C23.221,0.883 23.353,1.198 23.353,1.523 C23.353,1.848 23.221,2.163 22.997,2.386 C22.774,2.609 22.460,2.742 22.135,2.742 ZM46.468,24.660 C46.783,24.660 47.097,24.782 47.331,25.015 C47.554,25.238 47.686,25.554 47.686,25.878 C47.686,26.203 47.554,26.518 47.331,26.741 C47.108,26.964 46.793,27.097 46.468,27.097 C46.144,27.097 45.829,26.964 45.606,26.741 C45.382,26.518 45.250,26.203 45.250,25.878 C45.250,25.554 45.382,25.238 45.606,25.015 C45.829,24.792 46.144,24.660 46.468,24.660 Z"/>
</svg>
