<svg
 xmlns="http://www.w3.org/2000/svg"
 xmlns:xlink="http://www.w3.org/1999/xlink"
 width="28px" height="29px">
<path fill-rule="evenodd"  fill="rgb(0, 0, 0)"
 d="M15.945,27.411 L16.800,28.025 L16.036,29.000 L13.236,26.989 L15.209,24.248 L16.227,24.979 L15.377,26.221 C21.712,25.841 26.727,20.651 26.727,14.317 C26.727,9.748 24.118,5.605 19.982,3.595 L20.555,2.498 C25.136,4.752 28.000,9.260 28.000,14.317 C28.000,21.133 22.712,26.762 15.945,27.411 ZM14.700,12.672 C15.845,12.916 16.736,13.281 17.309,13.769 C17.882,14.195 18.136,14.865 18.136,15.718 C18.136,16.571 17.818,17.242 17.182,17.790 C16.546,18.338 15.718,18.643 14.700,18.643 L14.700,19.678 L13.618,19.678 L13.618,18.643 C12.218,18.521 10.945,17.973 9.864,17.059 L11.009,15.779 C11.836,16.511 12.727,16.937 13.682,17.059 L13.682,14.195 C12.536,13.951 11.709,13.586 11.136,13.160 C10.627,12.733 10.309,12.124 10.309,11.271 C10.309,10.418 10.627,9.748 11.264,9.199 C11.900,8.651 12.664,8.347 13.682,8.347 L13.682,7.615 L14.636,7.615 L14.636,8.347 C15.782,8.408 16.800,8.773 17.818,9.443 L16.800,10.784 C16.100,10.296 15.400,10.052 14.636,9.931 L14.636,12.672 L14.700,12.672 ZM13.618,9.931 C13.109,9.992 12.791,10.113 12.536,10.357 C12.282,10.601 12.155,10.845 12.155,11.149 C12.155,11.454 12.282,11.759 12.473,11.941 C12.664,12.124 13.045,12.307 13.618,12.489 L13.618,9.931 ZM14.573,14.561 L14.573,17.181 C15.082,17.120 15.464,16.937 15.718,16.754 C15.973,16.511 16.164,16.267 16.164,15.901 C16.164,15.536 16.036,15.292 15.845,15.109 C15.654,14.926 15.209,14.744 14.573,14.561 ZM11.582,4.021 L12.315,3.038 C6.126,3.565 1.273,8.695 1.273,14.926 C1.273,18.825 3.245,22.542 6.491,24.735 L5.727,25.771 C2.100,23.334 -0.000,19.252 -0.000,14.926 C-0.000,8.061 5.366,2.407 12.203,1.825 L11.073,0.975 L11.836,0.000 L14.573,2.010 L12.600,4.752 L11.582,4.021 Z"/>
</svg>
