<svg
 xmlns="http://www.w3.org/2000/svg"
 xmlns:xlink="http://www.w3.org/1999/xlink"
 width="19px" height="25px">
<text font-family="Roboto" fill="rgb(28, 28, 28)" transform="matrix( 1.40335187450709, 0, 0, 1.06376600383089,4.44361140673732, 18.0874908915207)" font-weight="bold" font-size="12px">&#36;</text>
<path fill-rule="evenodd"  fill="rgb(0, 0, 0)"
 d="M18.999,6.333 C18.994,6.187 18.935,6.044 18.826,5.936 L12.983,0.171 C12.983,0.171 12.983,0.171 12.983,0.171 C12.875,0.065 12.727,0.000 12.564,0.000 L1.249,0.000 C0.560,0.000 0.000,0.553 0.000,1.232 L0.000,23.768 C0.000,24.447 0.560,25.000 1.249,25.000 L17.751,25.000 C18.440,25.000 19.000,24.447 19.000,23.768 L19.000,6.350 C19.000,6.345 18.999,6.339 18.999,6.333 ZM13.157,1.999 L16.974,5.765 L13.407,5.765 C13.269,5.765 13.157,5.654 13.157,5.518 L13.157,1.999 L13.157,1.999 ZM17.813,23.768 C17.813,23.802 17.785,23.829 17.751,23.829 L1.249,23.829 C1.215,23.829 1.187,23.802 1.187,23.768 L1.187,1.232 C1.187,1.198 1.215,1.171 1.249,1.171 L11.970,1.171 L11.970,5.518 C11.970,6.299 12.615,6.936 13.407,6.936 L17.813,6.936 L17.813,23.768 L17.813,23.768 Z"/>
</svg>
