<svg
 xmlns="http://www.w3.org/2000/svg"
 xmlns:xlink="http://www.w3.org/1999/xlink"
 width="14px" height="29px">
<path fill-rule="evenodd"  fill="rgb(251, 218, 44)"
 d="M4.890,28.707 C4.758,28.907 4.593,29.007 4.411,29.007 C4.229,29.007 4.064,28.907 3.931,28.707 C3.667,28.307 3.667,27.657 3.931,27.256 L12.363,14.502 L3.931,1.748 C3.667,1.348 3.667,0.698 3.931,0.297 C4.196,-0.103 4.626,-0.103 4.890,0.297 L13.801,13.777 C14.065,14.177 14.065,14.827 13.801,15.227 L4.890,28.707 Z"/>
<path fill-rule="evenodd"  fill="rgb(251, 218, 44)"
 d="M1.125,28.707 C0.997,28.907 0.836,29.007 0.659,29.007 C0.482,29.007 0.321,28.907 0.193,28.707 C-0.064,28.307 -0.064,27.657 0.193,27.256 L8.393,14.502 L0.193,1.748 C-0.064,1.348 -0.064,0.698 0.193,0.297 C0.450,-0.103 0.868,-0.103 1.125,0.297 L9.792,13.777 C10.049,14.177 10.049,14.827 9.792,15.227 L1.125,28.707 Z"/>
</svg>
