<svg
 xmlns="http://www.w3.org/2000/svg"
 xmlns:xlink="http://www.w3.org/1999/xlink"
 width="17px" height="20px">
<path fill-rule="evenodd"  fill="rgb(255, 231, 101)"
 d="M13.170,20.000 L3.830,20.000 C1.720,20.000 0.000,18.262 0.000,16.129 C0.000,14.524 0.329,12.940 0.979,11.422 C1.498,10.216 2.218,9.048 3.119,7.954 C4.192,6.653 5.262,5.771 5.822,5.351 L3.559,1.896 C3.431,1.701 3.456,1.439 3.616,1.272 C4.386,0.474 5.172,0.100 6.093,0.100 C6.821,0.100 7.574,0.324 8.553,0.686 C8.628,0.715 8.702,0.728 8.788,0.728 C9.072,0.728 9.422,0.578 9.792,0.424 C10.261,0.224 10.800,-0.000 11.388,-0.000 C12.030,-0.000 12.606,0.262 13.149,0.798 C13.310,0.952 13.342,1.193 13.240,1.389 L11.141,5.322 C11.697,5.734 12.787,6.624 13.881,7.954 C14.786,9.048 15.502,10.216 16.021,11.422 C16.671,12.940 17.000,14.524 17.000,16.129 C17.000,18.262 15.280,20.000 13.170,20.000 ZM12.178,1.264 C11.841,1.023 11.573,0.990 11.384,0.990 C10.993,0.990 10.590,1.160 10.166,1.339 C9.726,1.526 9.265,1.717 8.784,1.717 C8.586,1.717 8.393,1.684 8.212,1.617 C7.336,1.289 6.677,1.090 6.093,1.090 C5.546,1.090 5.089,1.272 4.612,1.688 L6.764,4.973 L10.203,4.973 L12.178,1.264 ZM13.137,8.615 C11.935,7.148 10.718,6.233 10.343,5.971 L6.649,5.971 C6.278,6.237 5.056,7.148 3.855,8.615 C1.954,10.935 0.987,13.464 0.987,16.129 C0.987,17.713 2.263,19.002 3.830,19.002 L13.170,19.002 C14.737,19.002 16.013,17.713 16.004,16.129 C16.004,13.459 15.042,10.935 13.137,8.615 ZM8.035,12.553 L9.167,12.553 C10.121,12.553 10.899,13.339 10.899,14.303 C10.899,15.260 10.137,16.042 9.191,16.054 C9.187,16.054 9.183,16.054 9.179,16.054 L9.097,16.054 L9.097,16.765 C9.097,17.039 8.874,17.264 8.603,17.264 C8.331,17.264 8.109,17.039 8.109,16.765 L8.109,16.054 L7.138,16.054 C6.867,16.054 6.644,15.830 6.644,15.555 C6.644,15.281 6.867,15.056 7.138,15.056 L9.167,15.056 C9.578,15.056 9.911,14.719 9.911,14.303 C9.911,13.888 9.578,13.551 9.167,13.551 L8.035,13.551 C7.081,13.551 6.303,12.765 6.303,11.800 C6.303,10.836 7.081,10.050 8.035,10.050 L8.105,10.050 L8.105,9.356 C8.105,9.081 8.327,8.856 8.599,8.856 C8.870,8.856 9.092,9.081 9.092,9.356 L9.092,10.050 L10.026,10.050 C10.298,10.050 10.520,10.274 10.520,10.549 C10.520,10.823 10.298,11.048 10.026,11.048 L8.035,11.048 C7.624,11.048 7.290,11.385 7.290,11.800 C7.290,12.216 7.624,12.553 8.035,12.553 Z"/>
</svg>
