<svg
 xmlns="http://www.w3.org/2000/svg"
 xmlns:xlink="http://www.w3.org/1999/xlink"
 width="21px" height="20px">
<path fill-rule="evenodd"  fill="rgb(255, 224, 59)"
 d="M14.232,20.000 C12.822,20.000 11.512,19.559 10.427,18.807 C9.367,19.627 7.313,20.000 5.537,20.000 C4.150,20.000 2.838,19.791 1.841,19.411 C0.319,18.831 -0.000,18.052 -0.000,17.500 C-0.000,16.923 -0.000,3.129 -0.000,2.500 C-0.000,0.775 2.969,0.000 5.537,0.000 C8.329,0.000 11.156,0.859 11.156,2.500 C11.156,2.934 11.156,6.548 11.156,7.002 C12.080,6.521 13.125,6.250 14.232,6.250 C17.964,6.250 21.000,9.334 21.000,13.125 C21.000,16.916 17.964,20.000 14.232,20.000 ZM1.230,17.500 C1.230,17.870 2.750,18.750 5.537,18.750 C7.405,18.750 8.758,18.364 9.439,17.974 C9.176,17.705 8.935,17.415 8.718,17.106 C7.813,17.358 6.684,17.500 5.537,17.500 C4.163,17.500 2.438,17.282 1.230,16.636 L1.230,17.500 ZM1.230,15.000 C1.230,15.370 2.750,16.250 5.537,16.250 C6.433,16.250 7.334,16.152 8.077,15.981 C7.912,15.615 7.777,15.232 7.677,14.835 C7.016,14.941 6.266,15.000 5.537,15.000 C4.163,15.000 2.438,14.782 1.230,14.136 L1.230,15.000 ZM1.230,12.500 C1.230,12.870 2.750,13.750 5.537,13.750 C6.204,13.750 6.886,13.697 7.481,13.601 C7.454,13.192 7.460,12.788 7.507,12.360 C6.887,12.450 6.205,12.500 5.537,12.500 C4.163,12.500 2.438,12.282 1.230,11.636 L1.230,12.500 ZM1.230,10.000 C1.230,10.370 2.750,11.250 5.537,11.250 C6.319,11.250 7.116,11.177 7.781,11.047 C7.931,10.568 8.131,10.111 8.376,9.683 C7.509,9.893 6.521,10.000 5.537,10.000 C4.164,10.000 2.438,9.782 1.230,9.136 L1.230,10.000 ZM5.537,1.250 C2.738,1.250 1.230,2.133 1.230,2.500 C1.230,2.870 2.750,3.750 5.537,3.750 C8.363,3.750 9.926,2.852 9.926,2.500 C9.926,2.133 8.317,1.250 5.537,1.250 ZM9.926,4.120 C8.842,4.701 7.184,5.000 5.537,5.000 C4.164,5.000 2.438,4.782 1.230,4.136 L1.230,5.000 C1.230,5.370 2.750,6.250 5.537,6.250 C8.363,6.250 9.926,5.352 9.926,5.000 L9.926,4.120 ZM9.926,6.620 C8.842,7.201 7.184,7.500 5.537,7.500 C4.164,7.500 2.438,7.282 1.230,6.636 L1.230,7.500 C1.230,7.870 2.750,8.750 5.537,8.750 C8.363,8.750 9.926,7.852 9.926,7.500 L9.926,6.620 ZM14.232,7.492 C11.179,7.492 8.687,10.023 8.687,13.125 C8.687,16.227 11.179,18.758 14.232,18.758 C17.286,18.758 19.778,16.227 19.778,13.125 C19.778,10.023 17.286,7.492 14.232,7.492 ZM15.463,16.250 L14.848,16.250 L14.848,16.875 C14.848,17.220 14.572,17.500 14.232,17.500 C13.893,17.500 13.617,17.220 13.617,16.875 L13.617,16.250 L11.771,16.250 C11.432,16.250 11.156,15.970 11.156,15.625 C11.156,15.280 11.432,15.000 11.771,15.000 L12.387,15.000 L12.387,11.250 L11.771,11.250 C11.432,11.250 11.156,10.970 11.156,10.625 C11.156,10.280 11.432,10.000 11.771,10.000 L13.617,10.000 L13.617,9.375 C13.617,9.030 13.893,8.750 14.232,8.750 C14.572,8.750 14.848,9.030 14.848,9.375 L14.848,10.000 L15.463,10.000 C16.481,10.000 17.309,10.841 17.309,11.875 C17.309,12.355 17.130,12.793 16.837,13.125 C17.130,13.457 17.309,13.895 17.309,14.375 C17.309,15.409 16.481,16.250 15.463,16.250 ZM15.463,11.250 L13.617,11.250 L13.617,12.500 L15.463,12.500 C15.802,12.500 16.078,12.220 16.078,11.875 C16.078,11.530 15.802,11.250 15.463,11.250 ZM15.463,13.750 L13.617,13.750 L13.617,15.000 L15.463,15.000 C15.802,15.000 16.078,14.720 16.078,14.375 C16.078,14.030 15.802,13.750 15.463,13.750 Z"/>
</svg>
