<svg
 xmlns="http://www.w3.org/2000/svg"
 xmlns:xlink="http://www.w3.org/1999/xlink"
 width="24px" height="21px">
<path fill-rule="evenodd"  fill="rgb(255, 222, 45)"
 d="M22.830,9.547 C22.605,9.765 22.244,9.765 22.019,9.547 L20.498,8.073 L20.498,18.676 C20.498,19.958 19.423,21.000 18.100,21.000 L4.890,21.000 C3.566,21.000 2.492,19.958 2.492,18.676 L2.492,17.129 C2.492,16.820 2.750,16.570 3.069,16.570 C3.388,16.570 3.646,16.820 3.646,17.129 L3.646,18.676 C3.646,19.344 4.205,19.886 4.894,19.886 L18.109,19.886 C18.799,19.886 19.358,19.344 19.358,18.676 L19.358,8.073 L17.837,9.547 C17.725,9.656 17.579,9.711 17.429,9.711 C17.279,9.711 17.133,9.656 17.021,9.547 C16.795,9.329 16.795,8.979 17.021,8.760 L19.522,6.336 C19.738,6.127 20.123,6.127 20.329,6.336 L22.830,8.760 C23.056,8.979 23.056,9.329 22.830,9.547 ZM12.145,11.053 L10.850,11.053 C9.751,11.053 8.855,10.139 8.855,9.019 C8.855,7.901 9.751,6.986 10.850,6.986 L10.925,6.986 L10.925,6.131 C10.925,5.822 11.183,5.572 11.502,5.572 C11.821,5.572 12.074,5.822 12.079,6.127 L12.079,6.982 L13.140,6.982 C13.459,6.982 13.717,7.232 13.717,7.541 C13.717,7.851 13.459,8.101 13.140,8.101 L10.854,8.101 C10.390,8.101 10.010,8.515 10.010,9.019 C10.010,9.524 10.390,9.938 10.854,9.938 L12.149,9.938 C13.248,9.938 14.144,10.848 14.144,11.971 C14.144,13.081 13.266,13.991 12.178,14.005 C12.173,14.005 12.168,14.005 12.164,14.005 L12.079,14.005 L12.079,14.878 C12.079,15.187 11.821,15.437 11.502,15.437 C11.183,15.437 10.925,15.187 10.925,14.878 L10.925,14.009 L9.817,14.009 C9.498,14.009 9.240,13.759 9.240,13.450 C9.240,13.140 9.498,12.890 9.817,12.890 L12.145,12.890 C12.609,12.890 12.990,12.481 12.990,11.971 C12.990,11.466 12.609,11.053 12.145,11.053 ZM19.940,4.430 C19.621,4.430 19.362,4.180 19.362,3.871 L19.362,2.324 C19.362,1.656 18.804,1.114 18.114,1.114 L4.904,1.114 C4.214,1.114 3.655,1.656 3.655,2.324 L3.655,12.931 L5.176,11.457 C5.401,11.239 5.763,11.239 5.988,11.457 C6.213,11.676 6.213,12.026 5.988,12.244 L3.487,14.669 C3.374,14.778 3.228,14.832 3.078,14.832 C2.928,14.832 2.783,14.778 2.670,14.669 L0.169,12.244 C-0.057,12.026 -0.057,11.676 0.169,11.457 C0.394,11.239 0.755,11.239 0.980,11.457 L2.496,12.927 L2.496,2.324 C2.496,1.042 3.571,0.000 4.894,0.000 L18.109,0.000 C19.428,0.000 20.503,1.046 20.517,2.324 L20.517,3.871 C20.517,4.180 20.259,4.430 19.940,4.430 Z"/>
</svg>
