<svg
 xmlns="http://www.w3.org/2000/svg"
 xmlns:xlink="http://www.w3.org/1999/xlink"
 width="25px" height="22px">
<path fill-rule="evenodd"  fill="rgb(255, 222, 45)"
 d="M17.740,21.999 C14.220,21.999 10.481,20.958 10.481,19.026 L10.481,9.347 C10.481,7.416 14.220,6.374 17.740,6.374 C21.347,6.374 25.000,7.395 25.000,9.347 L25.000,19.026 C25.000,20.978 21.347,21.999 17.740,21.999 ZM11.537,19.026 C11.537,19.810 13.950,20.948 17.735,20.948 C21.521,20.948 23.934,19.810 23.934,19.026 L23.934,17.428 C22.587,18.313 20.153,18.773 17.735,18.773 C15.368,18.773 12.899,18.298 11.537,17.403 L11.537,19.026 ZM11.537,15.800 C11.537,16.584 13.950,17.721 17.735,17.721 C21.521,17.721 23.934,16.584 23.934,15.800 L23.934,14.202 C22.587,15.087 20.153,15.547 17.735,15.547 C15.368,15.547 12.899,15.072 11.537,14.177 L11.537,15.800 ZM11.537,12.574 C11.537,13.357 13.950,14.495 17.735,14.495 C21.521,14.495 23.934,13.357 23.934,12.574 L23.934,10.976 C22.587,11.860 20.153,12.321 17.735,12.321 C15.368,12.321 12.899,11.845 11.537,10.950 L11.537,12.574 ZM17.740,7.426 C13.955,7.426 11.542,8.564 11.542,9.347 C11.542,10.131 13.955,11.269 17.740,11.269 C21.521,11.269 23.934,10.131 23.939,9.347 C23.939,8.564 21.526,7.426 17.740,7.426 ZM19.062,9.322 C19.251,9.443 19.347,9.600 19.342,9.797 C19.342,10.010 19.220,10.192 18.980,10.339 C18.740,10.485 18.409,10.571 17.980,10.606 L17.980,10.940 L17.506,10.940 L17.506,10.617 C17.128,10.591 16.817,10.515 16.582,10.389 C16.348,10.263 16.195,10.081 16.128,9.848 L16.985,9.797 C17.021,9.888 17.087,9.969 17.184,10.040 C17.281,10.106 17.388,10.156 17.506,10.187 L17.506,9.443 C17.077,9.378 16.761,9.282 16.562,9.145 C16.363,9.009 16.261,8.847 16.261,8.655 C16.261,8.457 16.373,8.296 16.603,8.164 C16.832,8.033 17.133,7.957 17.511,7.936 L17.511,7.760 L17.985,7.760 L17.985,7.936 C18.332,7.957 18.613,8.022 18.817,8.129 C19.021,8.235 19.154,8.376 19.210,8.553 L18.378,8.614 C18.327,8.478 18.200,8.381 17.985,8.331 L17.985,9.024 C18.511,9.100 18.873,9.201 19.062,9.322 ZM17.985,10.207 C18.154,10.192 18.286,10.151 18.388,10.086 C18.490,10.020 18.541,9.944 18.536,9.848 C18.536,9.772 18.495,9.701 18.409,9.646 C18.322,9.590 18.184,9.545 17.985,9.514 L17.985,10.207 ZM17.506,8.321 C17.373,8.346 17.271,8.387 17.195,8.442 C17.118,8.498 17.077,8.558 17.077,8.629 C17.077,8.695 17.113,8.751 17.184,8.806 C17.256,8.862 17.363,8.902 17.506,8.938 L17.506,8.321 ZM15.383,5.686 C15.338,5.696 14.899,5.777 14.736,5.307 L13.904,2.081 L8.818,9.519 C8.716,9.706 8.185,9.969 7.884,9.423 L6.272,5.555 L0.956,12.472 C0.670,12.806 0.308,12.644 0.211,12.574 C-0.024,12.397 -0.069,12.068 0.109,11.835 L5.991,4.195 C6.369,3.775 6.843,4.093 6.905,4.311 L8.491,8.118 L13.149,1.302 L9.496,2.227 C9.210,2.303 8.920,2.131 8.848,1.848 C8.777,1.565 8.945,1.277 9.231,1.206 L13.919,0.018 C14.205,-0.058 14.496,0.114 14.567,0.397 L15.766,5.044 C15.838,5.327 15.669,5.615 15.383,5.686 Z"/>
</svg>
