<svg
 xmlns="http://www.w3.org/2000/svg"
 xmlns:xlink="http://www.w3.org/1999/xlink"
 width="27px" height="27px">
<path fill-rule="evenodd"  stroke-width="1px" stroke="rgb(255, 222, 45)" fill="rgb(255, 222, 45)"
 d="M23.500,22.105 L23.500,21.041 C23.500,19.957 22.968,18.914 22.081,18.256 C20.014,16.726 17.909,15.658 17.172,15.302 L17.172,14.087 C17.322,13.768 17.446,13.420 17.541,13.044 C18.090,12.856 18.390,12.087 18.591,11.408 C18.861,10.504 18.831,9.869 18.514,9.518 C18.848,7.779 18.698,6.499 18.072,5.709 C17.742,5.296 17.356,5.120 17.099,5.042 C16.915,4.797 16.542,4.384 15.912,4.052 C15.260,3.684 14.527,3.500 13.721,3.500 C13.575,3.500 13.429,3.508 13.301,3.516 C12.941,3.533 12.585,3.598 12.233,3.709 C12.229,3.709 12.225,3.713 12.220,3.713 C11.834,3.839 11.457,4.024 11.093,4.261 C10.677,4.515 10.295,4.817 9.965,5.153 C9.318,5.787 8.889,6.503 8.705,7.268 C8.529,7.902 8.516,8.540 8.662,9.166 C8.585,9.219 8.516,9.280 8.456,9.354 C8.160,9.726 8.147,10.311 8.409,11.199 C8.589,11.813 8.829,12.438 9.236,12.721 C9.356,13.310 9.558,13.846 9.828,14.320 L9.828,15.306 C9.091,15.662 6.985,16.726 4.919,18.260 C4.032,18.918 3.500,19.957 3.500,21.045 L3.500,22.109 C3.500,22.878 4.156,23.500 4.958,23.500 L22.042,23.500 C22.844,23.500 23.500,22.874 23.500,22.105 ZM4.546,22.105 L4.546,21.041 C4.546,20.264 4.923,19.520 5.558,19.049 C7.787,17.401 10.055,16.312 10.488,16.112 C10.728,16.002 10.878,15.772 10.878,15.515 L10.878,14.185 C10.878,14.095 10.853,14.009 10.806,13.932 C10.522,13.473 10.325,12.925 10.227,12.299 C10.192,12.099 10.038,11.939 9.837,11.890 C9.781,11.829 9.622,11.608 9.421,10.925 C9.253,10.360 9.266,10.098 9.283,10.004 C9.451,10.013 9.618,9.939 9.725,9.812 C9.837,9.677 9.867,9.497 9.807,9.338 C9.584,8.744 9.558,8.135 9.729,7.513 C9.875,6.916 10.210,6.360 10.728,5.852 C11.007,5.566 11.329,5.316 11.671,5.108 C11.676,5.104 11.684,5.100 11.689,5.095 C11.976,4.903 12.276,4.760 12.572,4.662 C12.576,4.662 12.580,4.658 12.580,4.658 C12.833,4.576 13.095,4.531 13.369,4.519 C14.119,4.457 14.793,4.592 15.389,4.924 C16.040,5.267 16.306,5.717 16.306,5.717 C16.387,5.877 16.533,5.971 16.722,5.983 C16.735,5.983 17.013,6.024 17.253,6.347 C17.506,6.691 17.867,7.574 17.416,9.636 C17.365,9.865 17.489,10.094 17.708,10.193 C17.729,10.266 17.764,10.516 17.579,11.138 C17.416,11.686 17.284,11.935 17.206,12.046 C17.108,12.029 17.005,12.038 16.910,12.078 C16.748,12.144 16.628,12.287 16.598,12.451 C16.508,12.942 16.362,13.383 16.173,13.760 C16.139,13.829 16.122,13.903 16.122,13.977 L16.122,15.515 C16.122,15.772 16.272,15.997 16.512,16.112 C16.945,16.312 19.213,17.405 21.438,19.049 C22.072,19.520 22.450,20.264 22.450,21.041 L22.450,22.105 C22.450,22.318 22.265,22.494 22.042,22.494 L4.958,22.494 C4.730,22.498 4.546,22.322 4.546,22.105 Z"/>
</svg>
