<svg
 xmlns="http://www.w3.org/2000/svg"
 xmlns:xlink="http://www.w3.org/1999/xlink"
 width="35px" height="30px">
<path fill-rule="evenodd"  stroke-width="1px" stroke="rgb(255, 222, 45)" fill="rgb(255, 222, 45)"
 d="M29.961,11.988 L27.800,14.111 L24.693,17.163 L25.542,17.998 C26.280,18.722 26.280,19.901 25.542,20.626 C25.194,20.968 24.741,21.147 24.283,21.165 C24.264,21.615 24.082,22.060 23.734,22.402 C23.385,22.745 22.932,22.923 22.474,22.942 C22.456,23.392 22.274,23.836 21.925,24.179 C21.586,24.511 21.142,24.700 20.666,24.720 C20.647,25.186 20.455,25.623 20.116,25.956 C19.759,26.307 19.284,26.500 18.778,26.500 C18.273,26.500 17.798,26.307 17.441,25.956 L15.133,23.689 L14.170,24.635 C13.844,24.954 13.417,25.114 12.989,25.114 C12.562,25.114 12.134,24.954 11.809,24.635 L11.494,24.326 C11.219,24.055 11.051,23.706 11.013,23.330 C10.631,23.293 10.275,23.129 10.000,22.858 L9.686,22.549 C9.410,22.278 9.242,21.929 9.205,21.552 C8.834,21.516 8.474,21.359 8.191,21.081 L7.877,20.773 C7.601,20.502 7.434,20.153 7.396,19.777 C7.013,19.740 6.658,19.575 6.382,19.305 L6.068,18.996 C5.753,18.686 5.579,18.274 5.579,17.836 C5.579,17.398 5.753,16.986 6.068,16.676 L7.031,15.730 L5.284,14.014 L3.679,12.437 C3.439,12.202 3.439,11.821 3.679,11.586 C3.918,11.351 4.306,11.351 4.545,11.586 L6.151,13.163 L18.307,25.104 C18.567,25.359 18.990,25.359 19.249,25.104 C19.509,24.849 19.509,24.434 19.249,24.179 L15.814,20.804 C15.574,20.569 15.574,20.188 15.814,19.953 C16.053,19.717 16.441,19.717 16.680,19.953 L20.116,23.328 C20.242,23.451 20.409,23.519 20.587,23.519 C20.765,23.519 20.932,23.451 21.058,23.328 C21.318,23.072 21.318,22.657 21.058,22.402 L17.622,19.027 C17.383,18.792 17.383,18.411 17.622,18.176 C17.862,17.941 18.250,17.941 18.489,18.176 L21.925,21.551 C22.184,21.806 22.607,21.806 22.867,21.551 C22.993,21.427 23.062,21.263 23.062,21.088 C23.062,20.914 22.993,20.749 22.867,20.626 L19.431,17.251 C19.192,17.015 19.192,16.634 19.431,16.399 C19.670,16.164 20.058,16.164 20.298,16.399 L23.733,19.774 C23.993,20.029 24.416,20.029 24.675,19.774 C24.935,19.519 24.935,19.104 24.675,18.849 L23.393,17.589 L16.316,10.637 L13.606,10.404 L13.435,11.235 C13.127,12.735 11.635,13.709 10.108,13.407 C8.581,13.104 7.589,11.638 7.897,10.138 L8.176,8.780 C8.724,6.110 11.377,4.375 14.094,4.905 C14.094,4.905 14.095,4.905 14.095,4.905 L20.139,5.968 C20.228,5.724 20.369,5.494 20.568,5.299 L21.860,4.030 C22.208,3.688 22.670,3.500 23.162,3.500 C23.654,3.500 24.117,3.688 24.465,4.030 L29.961,9.429 C30.679,10.135 30.679,11.283 29.961,11.988 ZM7.838,16.641 L6.935,17.528 C6.762,17.698 6.762,17.974 6.935,18.144 L7.249,18.453 C7.422,18.623 7.704,18.623 7.877,18.453 L8.780,17.566 L7.838,16.641 ZM9.646,18.417 L8.743,19.305 C8.570,19.475 8.570,19.751 8.743,19.921 L9.058,20.230 C9.231,20.400 9.512,20.400 9.686,20.230 L10.589,19.343 L9.646,18.417 ZM11.455,20.194 L10.552,21.081 C10.468,21.164 10.422,21.273 10.422,21.390 C10.422,21.506 10.468,21.616 10.552,21.698 L10.866,22.007 C11.039,22.177 11.321,22.177 11.494,22.007 L12.397,21.120 L11.455,20.194 ZM13.264,21.971 L12.361,22.858 C12.188,23.028 12.188,23.305 12.361,23.475 L12.675,23.783 C12.848,23.953 13.130,23.953 13.303,23.783 L14.206,22.896 L13.264,21.971 ZM19.835,7.138 L13.879,6.090 C13.875,6.090 13.871,6.089 13.866,6.088 C11.806,5.679 9.793,6.994 9.377,9.018 L9.099,10.376 C9.014,10.787 9.098,11.206 9.334,11.556 C9.570,11.905 9.931,12.143 10.350,12.226 C11.215,12.397 12.059,11.846 12.234,10.997 L12.512,9.639 C12.571,9.356 12.824,9.156 13.113,9.156 C13.130,9.156 13.148,9.156 13.166,9.158 L16.645,9.457 C16.788,9.469 16.923,9.531 17.025,9.631 L23.826,16.312 L26.500,13.685 L20.568,7.858 L19.835,7.138 ZM29.094,10.280 L23.598,4.881 C23.482,4.767 23.327,4.704 23.162,4.704 C22.997,4.704 22.843,4.767 22.726,4.881 L21.434,6.150 C21.318,6.264 21.254,6.416 21.254,6.578 C21.254,6.740 21.318,6.892 21.434,7.007 L27.367,12.834 L29.094,11.137 C29.211,11.022 29.275,10.870 29.275,10.708 C29.275,10.547 29.211,10.395 29.094,10.280 ZM27.611,11.550 C27.272,11.550 26.998,11.280 26.998,10.948 C26.998,10.615 27.272,10.346 27.611,10.346 C27.949,10.346 28.224,10.615 28.224,10.948 C28.224,11.280 27.949,11.550 27.611,11.550 Z"/>
</svg>
