<svg
 xmlns="http://www.w3.org/2000/svg"
 xmlns:xlink="http://www.w3.org/1999/xlink"
 width="24px" height="17px">
<path fill-rule="evenodd"  fill="#ffffff"
 d="M20.300,17.000 L2.919,17.000 C1.367,17.000 0.105,15.775 0.105,14.268 L0.105,2.732 C0.105,1.225 1.367,0.000 2.919,0.000 L20.305,0.000 C21.857,0.000 23.119,1.230 23.114,2.736 L23.114,14.268 C23.114,15.775 21.852,17.000 20.300,17.000 ZM21.829,14.268 L21.829,2.736 C21.829,1.918 21.143,1.253 20.300,1.253 L2.919,1.253 C2.076,1.253 1.391,1.918 1.391,2.736 L1.391,14.268 C1.391,15.087 2.076,15.752 2.919,15.752 L20.305,15.752 C21.148,15.752 21.833,15.087 21.833,14.268 L21.829,14.268 ZM20.291,14.449 C20.162,14.578 19.996,14.643 19.824,14.643 C19.667,14.643 19.505,14.587 19.382,14.472 L13.659,9.193 L12.055,10.589 C11.936,10.695 11.779,10.751 11.626,10.751 C11.474,10.751 11.322,10.700 11.198,10.594 L9.636,9.240 L3.881,14.467 C3.757,14.578 3.600,14.633 3.443,14.633 C3.271,14.633 3.100,14.564 2.971,14.435 C2.729,14.181 2.743,13.788 3.000,13.552 L8.670,8.398 L2.976,3.457 C2.710,3.226 2.686,2.833 2.924,2.574 C3.162,2.316 3.566,2.293 3.833,2.524 L9.993,7.876 C10.032,7.904 10.065,7.932 10.098,7.964 C10.098,7.968 10.103,7.973 10.108,7.978 L11.622,9.290 L19.382,2.528 C19.648,2.297 20.053,2.320 20.291,2.574 C20.529,2.833 20.505,3.226 20.243,3.457 L14.616,8.357 L20.267,13.566 C20.524,13.802 20.534,14.199 20.291,14.449 Z"/>
</svg>
