<svg
 xmlns="http://www.w3.org/2000/svg"
 xmlns:xlink="http://www.w3.org/1999/xlink"
 width="23px" height="20px">
<path fill-rule="evenodd"  fill="#ffffff"
 d="M21.822,5.516 C21.540,4.990 21.070,4.605 20.498,4.432 C19.926,4.259 19.321,4.319 18.795,4.601 C18.268,4.883 17.883,5.353 17.710,5.925 C17.594,6.305 17.585,6.701 17.673,7.078 L15.258,8.371 C14.524,7.340 13.379,6.621 12.064,6.456 L12.064,4.395 C13.016,4.138 13.718,3.268 13.718,2.236 C13.718,1.003 12.715,0.000 11.482,0.000 C10.249,0.000 9.245,1.003 9.245,2.236 C9.245,3.268 9.948,4.139 10.900,4.395 L10.900,6.456 C9.220,6.667 7.817,7.781 7.194,9.295 L4.551,8.583 C4.552,8.195 4.453,7.813 4.254,7.468 C3.956,6.950 3.475,6.579 2.898,6.424 C1.707,6.103 0.478,6.811 0.157,8.001 C0.001,8.578 0.080,9.181 0.378,9.699 C0.676,10.216 1.158,10.587 1.734,10.742 L1.734,10.742 C1.928,10.795 2.124,10.820 2.320,10.820 C2.706,10.820 3.088,10.719 3.432,10.521 C3.777,10.323 4.054,10.042 4.248,9.706 L6.891,10.419 C6.863,10.626 6.847,10.838 6.847,11.053 C6.847,12.121 7.211,13.106 7.821,13.891 L5.883,15.828 C5.029,15.337 3.918,15.454 3.188,16.183 C2.316,17.055 2.316,18.474 3.188,19.346 C3.624,19.782 4.197,20.000 4.770,20.000 C5.342,20.000 5.915,19.782 6.351,19.346 C7.080,18.617 7.197,17.505 6.706,16.651 L8.644,14.713 C9.429,15.323 10.413,15.688 11.482,15.688 C12.551,15.688 13.535,15.323 14.320,14.713 L16.258,16.651 C15.767,17.506 15.883,18.617 16.613,19.346 C17.049,19.782 17.621,20.000 18.194,20.000 C18.767,20.000 19.340,19.782 19.776,19.346 C20.647,18.474 20.647,17.055 19.776,16.183 C19.046,15.454 17.935,15.337 17.080,15.828 L15.143,13.891 C15.753,13.106 16.117,12.122 16.117,11.053 C16.117,10.469 16.007,9.911 15.810,9.396 L18.223,8.104 C18.488,8.386 18.822,8.597 19.203,8.713 C19.417,8.777 19.636,8.810 19.853,8.810 C20.217,8.810 20.577,8.720 20.906,8.544 C21.433,8.262 21.818,7.792 21.991,7.220 C22.164,6.648 22.104,6.043 21.822,5.516 ZM20.357,7.518 C20.104,7.653 19.814,7.682 19.539,7.599 C19.265,7.516 19.040,7.331 18.904,7.078 C18.769,6.826 18.740,6.536 18.823,6.261 C18.906,5.987 19.091,5.762 19.344,5.626 C19.502,5.542 19.675,5.499 19.849,5.499 C19.953,5.499 20.058,5.514 20.161,5.545 C20.435,5.628 20.661,5.813 20.796,6.065 C20.931,6.318 20.960,6.608 20.877,6.883 C20.794,7.157 20.609,7.382 20.357,7.518 ZM14.953,11.053 C14.953,12.967 13.396,14.524 11.482,14.524 C9.568,14.524 8.010,12.967 8.010,11.053 C8.010,9.139 9.568,7.581 11.482,7.581 C13.396,7.581 14.953,9.139 14.953,11.053 ZM10.409,2.236 C10.409,1.645 10.890,1.164 11.482,1.164 C12.073,1.164 12.555,1.645 12.555,2.236 C12.555,2.828 12.073,3.309 11.482,3.309 C10.890,3.309 10.409,2.828 10.409,2.236 ZM2.037,9.619 C1.760,9.545 1.529,9.367 1.386,9.118 C1.243,8.870 1.206,8.581 1.280,8.304 C1.434,7.733 2.024,7.393 2.595,7.547 C2.872,7.622 3.103,7.800 3.246,8.048 C3.389,8.296 3.427,8.585 3.352,8.862 C3.198,9.433 2.608,9.773 2.037,9.619 ZM5.528,18.523 C5.110,18.941 4.429,18.941 4.011,18.523 C3.593,18.105 3.593,17.424 4.011,17.006 C4.220,16.797 4.495,16.692 4.770,16.692 C5.044,16.692 5.319,16.797 5.528,17.006 C5.946,17.424 5.946,18.105 5.528,18.523 ZM18.953,17.006 C19.371,17.424 19.371,18.105 18.953,18.523 C18.534,18.941 17.854,18.941 17.435,18.523 C17.017,18.105 17.017,17.424 17.435,17.006 C17.644,16.797 17.919,16.692 18.194,16.692 C18.469,16.692 18.744,16.797 18.953,17.006 Z"/>
</svg>
