<svg
 xmlns="http://www.w3.org/2000/svg"
 xmlns:xlink="http://www.w3.org/1999/xlink"
 width="13px" height="17px">
<path fill-rule="evenodd"  fill="#000000"
 d="M12.149,17.000 L0.859,17.000 C0.387,17.000 0.004,16.624 0.004,16.162 L0.004,0.838 C0.004,0.376 0.387,-0.000 0.859,-0.000 L9.490,-0.000 C9.602,-0.000 9.704,0.044 9.777,0.116 C9.777,0.116 9.777,0.117 9.777,0.117 L12.885,3.163 C12.961,3.239 13.001,3.339 13.003,3.441 C13.003,3.442 13.003,3.444 13.003,3.445 L13.003,16.162 C13.003,16.624 12.620,17.000 12.149,17.000 ZM9.896,1.359 L9.896,3.005 C9.896,3.028 9.915,3.047 9.939,3.047 L11.618,3.047 L9.896,1.359 ZM12.192,3.843 L9.939,3.843 C9.468,3.843 9.084,3.467 9.084,3.005 L9.084,0.796 L0.859,0.796 C0.835,0.796 0.816,0.815 0.816,0.838 L0.816,16.162 C0.816,16.185 0.835,16.204 0.859,16.204 L12.149,16.204 C12.172,16.204 12.192,16.185 12.192,16.162 L12.192,16.162 L12.192,3.843 ZM10.096,11.046 L2.912,11.046 C2.687,11.046 2.506,10.867 2.506,10.648 C2.506,10.428 2.687,10.250 2.912,10.250 L10.096,10.250 C10.320,10.250 10.502,10.428 10.502,10.648 C10.502,10.867 10.320,11.046 10.096,11.046 ZM10.096,8.644 L2.912,8.644 C2.687,8.644 2.506,8.466 2.506,8.246 C2.506,8.026 2.687,7.848 2.912,7.848 L10.096,7.848 C10.320,7.848 10.502,8.026 10.502,8.246 C10.502,8.466 10.320,8.644 10.096,8.644 ZM10.096,6.242 L2.912,6.242 C2.687,6.242 2.506,6.064 2.506,5.844 C2.506,5.624 2.687,5.446 2.912,5.446 L10.096,5.446 C10.320,5.446 10.502,5.624 10.502,5.844 C10.502,6.064 10.320,6.242 10.096,6.242 ZM2.912,12.651 L6.504,12.651 C6.728,12.651 6.910,12.830 6.910,13.049 C6.910,13.269 6.728,13.448 6.504,13.448 L2.912,13.448 C2.687,13.448 2.506,13.269 2.506,13.049 C2.506,12.830 2.687,12.651 2.912,12.651 Z"/>
</svg>
