<svg
 xmlns="http://www.w3.org/2000/svg"
 xmlns:xlink="http://www.w3.org/1999/xlink"
 width="18px" height="18px">
<path fill-rule="evenodd" fill="#000000"
 d="M17.495,16.321 L17.495,15.417 C17.495,14.495 17.044,13.609 16.289,13.049 C14.533,11.749 12.744,10.842 12.118,10.539 L12.118,9.507 C12.245,9.235 12.351,8.940 12.431,8.620 C12.897,8.460 13.152,7.806 13.324,7.230 C13.553,6.461 13.528,5.922 13.258,5.623 C13.542,4.146 13.415,3.058 12.883,2.387 C12.602,2.035 12.274,1.886 12.056,1.820 C11.899,1.611 11.582,1.260 11.047,0.979 C10.493,0.666 9.870,0.509 9.185,0.509 C9.061,0.509 8.937,0.516 8.828,0.523 C8.522,0.537 8.219,0.593 7.921,0.687 C7.917,0.687 7.913,0.690 7.910,0.690 C7.582,0.798 7.261,0.954 6.951,1.156 C6.598,1.371 6.274,1.629 5.993,1.914 C5.443,2.453 5.079,3.061 4.922,3.711 C4.773,4.250 4.762,4.792 4.886,5.324 C4.820,5.369 4.762,5.422 4.711,5.484 C4.459,5.801 4.448,6.298 4.671,7.052 C4.824,7.574 5.028,8.106 5.374,8.345 C5.476,8.846 5.647,9.301 5.877,9.705 L5.877,10.543 C5.250,10.845 3.461,11.749 1.705,13.053 C0.951,13.613 0.499,14.495 0.499,15.420 L0.499,16.324 C0.499,16.978 1.056,17.506 1.738,17.506 L16.257,17.506 C16.938,17.506 17.495,16.974 17.495,16.321 ZM1.388,16.321 L1.388,15.417 C1.388,14.756 1.709,14.124 2.248,13.724 C4.142,12.323 6.070,11.398 6.438,11.228 C6.642,11.134 6.769,10.939 6.769,10.720 L6.769,9.590 C6.769,9.514 6.747,9.441 6.707,9.375 C6.467,8.985 6.299,8.519 6.215,7.987 C6.186,7.817 6.055,7.681 5.884,7.640 C5.837,7.588 5.702,7.400 5.530,6.819 C5.388,6.339 5.399,6.117 5.414,6.037 C5.556,6.044 5.698,5.981 5.789,5.874 C5.884,5.759 5.909,5.606 5.858,5.470 C5.669,4.966 5.647,4.448 5.793,3.920 C5.917,3.412 6.201,2.939 6.642,2.508 C6.878,2.265 7.152,2.053 7.443,1.876 C7.447,1.872 7.454,1.869 7.458,1.865 C7.702,1.702 7.957,1.580 8.208,1.497 C8.212,1.497 8.216,1.493 8.216,1.493 C8.431,1.424 8.653,1.385 8.886,1.375 C9.524,1.323 10.096,1.438 10.602,1.719 C11.156,2.011 11.382,2.394 11.382,2.394 C11.451,2.529 11.575,2.609 11.735,2.620 C11.746,2.620 11.983,2.654 12.187,2.929 C12.402,3.221 12.708,3.972 12.325,5.724 C12.282,5.919 12.387,6.113 12.573,6.197 C12.591,6.260 12.620,6.472 12.464,7.000 C12.325,7.466 12.212,7.678 12.147,7.772 C12.063,7.758 11.976,7.765 11.895,7.800 C11.757,7.855 11.655,7.977 11.630,8.116 C11.553,8.533 11.429,8.909 11.269,9.229 C11.240,9.288 11.225,9.350 11.225,9.413 L11.225,10.720 C11.225,10.939 11.353,11.130 11.557,11.228 C11.925,11.398 13.852,12.326 15.743,13.724 C16.282,14.124 16.603,14.756 16.603,15.417 L16.603,16.321 C16.603,16.501 16.446,16.651 16.257,16.651 L1.738,16.651 C1.545,16.654 1.388,16.505 1.388,16.321 Z"/>
</svg>
