<svg xmlns="http://www.w3.org/2000/svg" width="22.031" height="17" viewBox="0 0 22.031 17">
  <metadata><?xpacket begin="﻿" id="W5M0MpCehiHzreSzNTczkc9d"?>
<x:xmpmeta xmlns:x="adobe:ns:meta/" x:xmptk="Adobe XMP Core 5.6-c138 79.159824, 2016/09/14-01:09:01        ">
   <rdf:RDF xmlns:rdf="http://www.w3.org/1999/02/22-rdf-syntax-ns#">
      <rdf:Description rdf:about=""/>
   </rdf:RDF>
</x:xmpmeta>





















<?xpacket end="w"?></metadata>
<defs>
    <style>
      .cls-1 {
        fill: #bac0c4;
        fill-rule: evenodd;
      }
    </style>
  </defs>
  <path id="Forma_1" data-name="Forma 1" class="cls-1" d="M822.115,3576.08c0.279,0.19,1.119.77,2.521,1.72s2.475,1.69,3.221,2.2c0.082,0.06.256,0.18,0.523,0.37s0.488,0.34.664,0.46,0.389,0.25.639,0.39a3.369,3.369,0,0,0,.707.33,2.073,2.073,0,0,0,.615.11h0.025a2.073,2.073,0,0,0,.615-0.11,3.369,3.369,0,0,0,.707-0.33q0.375-.21.639-0.39c0.176-.12.4-0.27,0.664-0.46s0.441-.31.523-0.37q1.131-.765,5.754-3.92a5.74,5.74,0,0,0,1.5-1.48,3.156,3.156,0,0,0,.6-1.82,1.837,1.837,0,0,0-.584-1.37,1.916,1.916,0,0,0-1.384-.57h-18.1a1.767,1.767,0,0,0-1.457.63,2.408,2.408,0,0,0-.51,1.57,2.79,2.79,0,0,0,.676,1.65A6.107,6.107,0,0,0,822.115,3576.08Zm18.69,1.29q-4.032,2.685-6.123,4.17c-0.467.33-.846,0.6-1.138,0.79a7.217,7.217,0,0,1-1.162.58,3.723,3.723,0,0,1-1.352.29h-0.025a3.732,3.732,0,0,1-1.353-.29,7.3,7.3,0,0,1-1.162-.58c-0.29-.19-0.67-0.46-1.137-0.79q-1.66-1.2-6.111-4.17a6.116,6.116,0,0,1-1.242-1.05v9.58a1.862,1.862,0,0,0,.578,1.37,1.9,1.9,0,0,0,1.389.56h18.1a1.9,1.9,0,0,0,1.389-.56,1.862,1.862,0,0,0,.578-1.37v-9.58A6.457,6.457,0,0,1,840.805,3577.37Z" transform="translate(-820 -3570.84)"/>
</svg>
