<svg
 xmlns="http://www.w3.org/2000/svg"
 xmlns:xlink="http://www.w3.org/1999/xlink"
 width="59px" height="47px">
<defs>
<filter id="Filter_0">
    <feFlood flood-color="rgb(54, 53, 51)" flood-opacity="1" result="floodOut" />
    <feComposite operator="atop" in="floodOut" in2="SourceGraphic" result="compOut" />
    <feBlend mode="normal" in="compOut" in2="SourceGraphic" />
</filter>

</defs>
<g filter="url(#Filter_0)">
<path fill-rule="evenodd"  fill="rgb(0, 0, 0)"
 d="M53.866,13.288 L46.865,13.288 C46.229,13.288 45.713,12.767 45.713,12.125 C45.713,11.483 46.229,10.962 46.865,10.962 L53.866,10.962 C54.503,10.962 55.019,11.483 55.019,12.125 C55.019,12.767 54.503,13.288 53.866,13.288 ZM25.760,19.552 C25.123,19.552 24.607,19.031 24.607,18.388 C24.607,17.746 25.123,17.225 25.760,17.225 L28.248,17.225 L28.248,16.838 C28.248,16.195 28.764,15.675 29.401,15.675 C30.037,15.675 30.553,16.195 30.553,16.838 L30.553,17.229 C32.521,17.303 34.101,18.942 34.101,20.947 C34.101,21.938 33.715,22.839 33.087,23.507 C33.714,24.175 34.101,25.075 34.101,26.066 C34.101,28.071 32.522,29.710 30.553,29.785 L30.553,30.159 C30.553,30.802 30.037,31.322 29.401,31.322 C28.764,31.322 28.248,30.802 28.248,30.159 L28.248,29.788 L25.760,29.788 C25.123,29.788 24.607,29.268 24.607,28.625 C24.607,27.983 25.123,27.462 25.760,27.462 L25.831,27.462 L25.831,19.552 L25.760,19.552 ZM28.136,27.462 L30.413,27.462 C31.176,27.462 31.796,26.836 31.796,26.066 C31.796,25.296 31.176,24.670 30.413,24.670 L28.136,24.670 L28.136,27.462 ZM28.136,22.343 L30.413,22.343 C31.176,22.343 31.796,21.717 31.796,20.948 C31.796,20.178 31.176,19.552 30.413,19.552 L28.136,19.552 L28.136,22.343 ZM20.661,28.526 C20.973,29.086 20.781,29.793 20.227,30.108 L20.217,30.113 C20.039,30.214 19.845,30.262 19.653,30.262 C19.251,30.262 18.860,30.049 18.648,29.669 C18.336,29.109 18.533,28.400 19.088,28.085 C19.642,27.770 20.349,27.966 20.661,28.526 ZM14.376,33.712 C15.012,33.712 15.528,34.233 15.528,34.875 C15.528,35.517 15.012,36.039 14.375,36.039 L7.375,36.039 C6.738,36.039 6.222,35.517 6.222,34.875 C6.222,34.233 6.738,33.712 7.375,33.712 L14.376,33.712 ZM54.736,8.608 C52.774,8.608 51.119,7.263 50.624,5.438 L47.810,5.438 L40.400,12.919 C40.184,13.137 39.891,13.259 39.586,13.259 L36.709,13.259 C38.160,14.297 39.412,15.666 40.342,17.331 C41.229,18.921 41.735,20.625 41.890,22.335 L50.632,22.335 C51.137,20.525 52.785,19.194 54.737,19.194 C57.087,19.194 59.000,21.125 59.000,23.498 C59.000,25.871 57.087,27.802 54.737,27.802 C52.785,27.802 51.136,26.471 50.632,24.661 L41.886,24.661 C41.554,28.211 39.737,31.568 36.711,33.737 L39.584,33.737 C39.890,33.737 40.183,33.860 40.399,34.078 L47.809,41.558 L50.624,41.558 C51.120,39.735 52.774,38.392 54.735,38.392 C57.086,38.392 58.999,40.323 58.999,42.696 C58.999,45.069 57.086,47.000 54.735,47.000 C52.792,47.000 51.150,45.681 50.638,43.884 L47.331,43.884 C47.026,43.884 46.733,43.762 46.516,43.543 L39.107,36.064 L19.892,36.064 L12.482,43.543 C12.266,43.762 11.973,43.884 11.667,43.884 L8.360,43.884 C7.848,45.681 6.206,47.000 4.264,47.000 C1.913,47.000 -0.000,45.069 -0.000,42.696 C-0.000,40.323 1.913,38.392 4.264,38.392 C6.224,38.392 7.879,39.735 8.375,41.558 L11.190,41.558 L18.599,34.078 C18.816,33.860 19.109,33.737 19.414,33.737 L22.285,33.737 C22.115,33.615 21.946,33.490 21.781,33.358 C21.281,32.959 21.196,32.228 21.591,31.724 C21.985,31.220 22.710,31.134 23.209,31.532 C24.968,32.934 27.073,33.676 29.206,33.737 L29.498,33.737 L29.501,33.737 L29.823,33.737 C31.420,33.684 33.016,33.248 34.477,32.417 C39.348,29.646 41.078,23.391 38.334,18.473 C35.589,13.555 29.393,11.809 24.521,14.580 C21.297,16.414 19.366,19.795 19.356,23.449 C19.357,23.466 19.359,23.482 19.359,23.498 C19.359,23.514 19.357,23.529 19.356,23.544 C19.359,23.979 19.387,24.417 19.446,24.857 C19.530,25.494 19.087,26.079 18.456,26.164 C17.826,26.249 17.245,25.802 17.161,25.165 C17.139,24.997 17.121,24.829 17.105,24.661 L8.368,24.661 C7.863,26.471 6.215,27.803 4.264,27.803 C1.913,27.803 -0.000,25.871 -0.000,23.498 C-0.000,21.125 1.913,19.194 4.264,19.194 C6.215,19.194 7.864,20.525 8.368,22.335 L17.105,22.335 C17.244,20.832 17.651,19.360 18.318,17.981 C19.234,16.083 20.595,14.472 22.288,13.259 L19.415,13.259 C19.110,13.259 18.817,13.137 18.601,12.919 L11.191,5.439 L8.377,5.439 C7.883,7.263 6.227,8.608 4.265,8.608 C1.914,8.608 0.001,6.677 0.001,4.304 C0.001,1.931 1.914,0.000 4.265,0.000 C6.206,0.000 7.847,1.317 8.361,3.112 L11.668,3.112 C11.974,3.112 12.267,3.235 12.483,3.453 L19.893,10.933 L29.502,10.933 L39.108,10.933 L46.518,3.453 C46.734,3.235 47.027,3.112 47.333,3.112 L50.640,3.112 C51.154,1.317 52.795,-0.000 54.736,-0.000 C57.087,-0.000 59.000,1.931 59.000,4.304 C59.000,6.677 57.087,8.608 54.736,8.608 ZM54.736,25.476 C55.817,25.476 56.695,24.589 56.695,23.498 C56.695,22.408 55.817,21.521 54.736,21.521 C53.656,21.521 52.777,22.408 52.777,23.498 C52.777,24.589 53.656,25.476 54.736,25.476 ZM54.735,44.674 C55.815,44.674 56.694,43.786 56.694,42.696 C56.694,41.606 55.815,40.718 54.735,40.718 C53.655,40.718 52.776,41.606 52.776,42.696 C52.776,43.786 53.655,44.674 54.735,44.674 ZM4.264,40.718 C3.183,40.718 2.305,41.606 2.305,42.696 C2.305,43.786 3.183,44.674 4.264,44.674 C5.344,44.674 6.222,43.786 6.222,42.696 C6.222,41.606 5.344,40.718 4.264,40.718 ZM4.264,21.521 C3.183,21.521 2.305,22.408 2.305,23.498 C2.305,24.589 3.183,25.476 4.264,25.476 C5.344,25.476 6.222,24.589 6.222,23.498 C6.222,22.408 5.344,21.521 4.264,21.521 ZM4.265,2.327 C3.185,2.327 2.306,3.214 2.306,4.304 C2.306,5.395 3.185,6.282 4.265,6.282 C5.345,6.282 6.224,5.395 6.224,4.304 C6.224,3.214 5.345,2.327 4.265,2.327 ZM54.736,2.327 C53.656,2.327 52.777,3.214 52.777,4.304 C52.777,5.395 53.656,6.282 54.736,6.282 C55.817,6.282 56.695,5.395 56.695,4.304 C56.695,3.214 55.817,2.327 54.736,2.327 ZM40.174,2.327 L29.688,2.327 C29.051,2.327 28.535,1.806 28.535,1.163 C28.535,0.521 29.051,0.000 29.688,0.000 L40.174,0.000 C40.810,0.000 41.326,0.521 41.326,1.163 C41.326,1.806 40.810,2.327 40.174,2.327 ZM27.438,6.747 L20.437,6.747 C19.801,6.747 19.285,6.226 19.285,5.584 C19.285,4.941 19.801,4.420 20.437,4.420 L27.438,4.420 C28.074,4.420 28.590,4.941 28.590,5.584 C28.590,6.226 28.074,6.747 27.438,6.747 ZM16.888,44.670 L26.803,44.670 C27.439,44.670 27.955,45.191 27.955,45.833 C27.955,46.475 27.439,46.997 26.803,46.997 L16.888,46.997 C16.252,46.997 15.735,46.475 15.735,45.833 C15.735,45.191 16.252,44.670 16.888,44.670 ZM29.502,40.249 L38.775,40.249 C39.412,40.249 39.928,40.770 39.928,41.413 C39.928,42.055 39.412,42.576 38.775,42.576 L29.502,42.576 C28.865,42.576 28.349,42.055 28.349,41.413 C28.349,40.770 28.865,40.249 29.502,40.249 ZM31.585,44.669 C31.888,44.669 32.185,44.794 32.400,45.010 C32.614,45.226 32.737,45.526 32.737,45.834 C32.737,46.140 32.614,46.438 32.400,46.656 C32.185,46.872 31.888,46.996 31.585,46.996 C31.282,46.996 30.985,46.872 30.770,46.656 C30.556,46.440 30.433,46.140 30.433,45.834 C30.433,45.526 30.556,45.226 30.770,45.010 C30.985,44.794 31.282,44.669 31.585,44.669 Z"/>
</g>
</svg>
