<svg
 xmlns="http://www.w3.org/2000/svg"
 xmlns:xlink="http://www.w3.org/1999/xlink"
 width="46px" height="53px">
<defs>
<filter id="Filter_0">
    <feFlood flood-color="rgb(54, 53, 51)" flood-opacity="1" result="floodOut" />
    <feComposite operator="atop" in="floodOut" in2="SourceGraphic" result="compOut" />
    <feBlend mode="normal" in="compOut" in2="SourceGraphic" />
</filter>

</defs>
<g filter="url(#Filter_0)">
<path fill-rule="evenodd"  fill="rgb(0, 0, 0)"
 d="M42.416,40.450 C40.181,43.132 37.166,45.090 34.511,46.651 C29.032,49.874 23.556,52.845 23.501,52.875 C23.349,52.957 23.180,53.000 23.007,53.000 L22.993,53.000 C22.820,53.000 22.650,52.957 22.499,52.875 C22.444,52.845 16.968,49.874 11.489,46.651 C8.834,45.090 5.819,43.132 3.584,40.450 C1.172,37.556 -0.000,34.246 -0.000,30.330 L-0.000,6.289 C-0.000,5.899 0.220,5.542 0.568,5.366 L0.579,5.360 C7.493,1.854 15.246,0.000 23.000,0.000 C23.002,0.000 23.004,0.000 23.007,0.000 C30.763,0.001 38.518,1.857 45.433,5.366 C45.781,5.543 46.000,5.900 46.000,6.289 L46.000,30.330 C46.000,34.246 44.827,37.556 42.416,40.450 ZM43.928,6.929 C30.776,0.475 15.225,0.476 2.072,6.929 L2.072,30.330 C2.072,38.062 7.475,41.888 12.540,44.867 C17.042,47.516 21.543,49.993 23.000,50.790 C24.457,49.993 28.958,47.516 33.460,44.867 C38.525,41.888 43.928,38.062 43.928,30.330 L43.928,30.330 L43.928,6.929 ZM35.549,40.578 C35.361,40.721 35.139,40.791 34.920,40.791 C34.608,40.791 34.300,40.651 34.096,40.385 C33.748,39.931 33.835,39.281 34.289,38.934 C37.621,36.385 39.107,33.604 39.107,29.917 L39.107,10.940 C34.114,8.515 28.563,7.235 23.012,7.233 C22.440,7.233 21.976,6.769 21.976,6.197 C21.976,5.626 22.440,5.163 23.012,5.163 C23.012,5.163 23.012,5.163 23.013,5.163 C29.099,5.164 35.185,6.621 40.612,9.375 C40.960,9.552 41.179,9.909 41.179,10.299 L41.179,29.917 C41.179,34.252 39.390,37.639 35.549,40.578 ZM22.158,13.388 L24.230,13.388 L24.230,11.111 C24.230,10.539 24.694,10.076 25.266,10.076 C25.839,10.076 26.302,10.539 26.302,11.111 L26.302,13.397 C30.446,13.578 33.762,17.002 33.762,21.186 C33.762,22.963 33.171,24.646 32.080,26.017 C33.171,27.389 33.762,29.071 33.762,30.848 C33.762,35.032 30.446,38.456 26.302,38.637 L26.302,40.923 C26.302,41.495 25.839,41.959 25.266,41.959 C24.694,41.959 24.230,41.495 24.230,40.923 L24.230,38.646 L22.158,38.646 L22.158,40.923 C22.158,41.495 21.694,41.959 21.122,41.959 C20.550,41.959 20.086,41.495 20.086,40.923 L20.086,38.646 L15.454,38.646 C14.882,38.646 14.418,38.183 14.418,37.611 C14.418,37.039 14.882,36.576 15.454,36.576 L16.356,36.576 L16.356,15.458 L15.454,15.458 C14.882,15.458 14.418,14.995 14.418,14.423 C14.418,13.852 14.882,13.388 15.454,13.388 L20.086,13.388 L20.086,11.111 C20.086,10.539 20.550,10.076 21.122,10.076 C21.694,10.076 22.158,10.539 22.158,11.111 L22.158,13.388 ZM18.428,15.458 L18.428,36.576 L25.957,36.576 C29.118,36.576 31.690,34.006 31.690,30.848 C31.690,29.299 31.076,27.846 29.963,26.757 C29.764,26.562 29.651,26.296 29.651,26.017 C29.651,25.739 29.764,25.472 29.963,25.278 C31.076,24.189 31.690,22.736 31.690,21.187 C31.690,18.028 29.118,15.458 25.957,15.458 L18.428,15.458 ZM29.715,21.187 C29.715,23.356 27.949,25.120 25.778,25.120 L21.226,25.120 C20.653,25.120 20.189,24.657 20.189,24.085 L20.189,18.288 C20.189,17.716 20.653,17.253 21.226,17.253 L25.778,17.253 C27.949,17.253 29.715,19.018 29.715,21.187 ZM25.778,19.323 L22.262,19.323 L22.262,23.050 L25.778,23.050 C26.806,23.050 27.643,22.214 27.643,21.186 C27.643,20.159 26.806,19.323 25.778,19.323 ZM21.226,26.914 L25.778,26.914 C27.949,26.914 29.715,28.679 29.715,30.848 C29.715,33.017 27.949,34.781 25.778,34.781 L21.226,34.781 C20.653,34.781 20.189,34.318 20.189,33.746 L20.189,27.950 C20.189,27.378 20.653,26.914 21.226,26.914 ZM22.262,32.711 L25.778,32.711 C26.806,32.711 27.643,31.875 27.643,30.848 C27.643,29.820 26.806,28.985 25.778,28.985 L22.262,28.985 L22.262,32.711 ZM23.403,45.846 C23.778,46.002 24.042,46.371 24.042,46.802 C24.042,47.374 23.578,47.838 23.006,47.838 L22.994,47.838 C22.822,47.838 22.652,47.794 22.500,47.712 C22.458,47.689 18.180,45.369 13.900,42.851 C11.811,41.622 9.438,40.080 7.671,37.960 C5.754,35.660 4.821,33.028 4.821,29.917 L4.821,14.423 C4.821,13.852 5.285,13.388 5.857,13.388 C6.430,13.388 6.893,13.852 6.893,14.423 L6.893,29.917 C6.893,35.254 9.977,38.140 14.951,41.067 C18.866,43.370 22.780,45.507 23.403,45.846 ZM6.342,11.214 L6.333,11.218 C6.181,11.297 6.018,11.334 5.858,11.334 C5.483,11.334 5.121,11.130 4.937,10.774 C4.674,10.266 4.873,9.641 5.382,9.379 C5.890,9.116 6.520,9.313 6.782,9.821 C7.045,10.329 6.850,10.951 6.342,11.214 ZM31.057,41.062 C31.549,40.771 32.189,40.931 32.480,41.423 C32.772,41.915 32.613,42.547 32.121,42.838 L32.091,42.856 C31.928,42.950 31.751,42.994 31.575,42.994 C31.217,42.994 30.868,42.808 30.676,42.475 C30.391,41.980 30.561,41.347 31.057,41.062 Z"/>
</g>
</svg>
