<svg
 xmlns="http://www.w3.org/2000/svg"
 xmlns:xlink="http://www.w3.org/1999/xlink"
 width="50px" height="50px">
<defs>
<filter id="Filter_0">
    <feFlood flood-color="rgb(54, 53, 51)" flood-opacity="1" result="floodOut" />
    <feComposite operator="atop" in="floodOut" in2="SourceGraphic" result="compOut" />
    <feBlend mode="normal" in="compOut" in2="SourceGraphic" />
</filter>

</defs>
<g filter="url(#Filter_0)">
<path fill-rule="evenodd"  fill="rgb(0, 0, 0)"
 d="M38.672,37.674 C38.929,37.674 39.181,37.778 39.362,37.960 C39.544,38.142 39.648,38.393 39.648,38.650 C39.648,38.907 39.544,39.159 39.362,39.341 C39.181,39.522 38.929,39.627 38.672,39.627 C38.415,39.627 38.163,39.522 37.981,39.341 C37.800,39.159 37.695,38.907 37.695,38.650 C37.695,38.393 37.800,38.142 37.981,37.960 C38.163,37.778 38.415,37.674 38.672,37.674 ZM49.023,50.000 L0.977,50.000 C0.437,50.000 0.000,49.563 0.000,49.024 L0.000,0.976 C0.000,0.437 0.437,-0.000 0.977,-0.000 C1.516,-0.000 1.953,0.437 1.953,0.976 L1.953,48.047 L3.320,48.047 L3.320,43.750 C3.320,43.211 3.758,42.773 4.297,42.773 L10.547,42.773 C11.086,42.773 11.523,43.211 11.523,43.750 L11.523,48.047 L14.844,48.047 L14.844,37.500 C14.844,36.961 15.281,36.523 15.820,36.523 L22.070,36.523 C22.610,36.523 23.047,36.961 23.047,37.500 L23.047,48.047 L26.268,48.047 L26.268,33.472 C26.268,32.932 26.705,32.495 27.244,32.495 L33.495,32.495 C34.034,32.495 34.471,32.932 34.471,33.472 L34.471,48.047 L37.695,48.047 L37.695,42.684 C37.695,42.145 38.133,41.708 38.672,41.708 C39.211,41.708 39.648,42.145 39.648,42.684 L39.648,48.047 L43.945,48.047 L43.945,29.492 L39.648,29.492 L39.648,34.969 C39.648,35.509 39.211,35.946 38.672,35.946 C38.133,35.946 37.695,35.509 37.695,34.969 L37.695,28.516 C37.695,27.976 38.133,27.539 38.672,27.539 L44.922,27.539 C45.461,27.539 45.898,27.976 45.898,28.516 L45.898,48.047 L49.023,48.047 C49.563,48.047 50.000,48.484 50.000,49.024 C50.000,49.563 49.563,50.000 49.023,50.000 ZM9.570,44.726 L5.273,44.726 L5.273,48.047 L9.570,48.047 L9.570,44.726 ZM21.094,38.477 L16.797,38.477 L16.797,48.047 L21.094,48.047 L21.094,38.477 ZM32.518,34.448 L28.221,34.448 L28.221,48.047 L32.518,48.047 L32.518,34.448 ZM45.606,21.993 C45.066,21.993 44.629,21.556 44.629,21.017 L44.629,18.637 C40.301,23.672 34.924,27.843 28.988,30.755 C22.244,34.064 14.988,35.742 7.422,35.742 C6.882,35.742 6.445,35.305 6.445,34.766 C6.445,34.226 6.882,33.789 7.422,33.789 C21.412,33.789 34.485,27.681 43.465,16.992 L40.605,16.992 C40.065,16.992 39.628,16.555 39.628,16.016 C39.628,15.476 40.065,15.039 40.605,15.039 L45.606,15.039 C46.145,15.039 46.582,15.476 46.582,16.016 L46.582,21.017 C46.582,21.556 46.145,21.993 45.606,21.993 ZM17.955,25.391 C10.954,25.391 5.259,19.695 5.259,12.695 C5.259,5.695 10.954,-0.000 17.955,-0.000 C24.955,-0.000 30.650,5.695 30.650,12.695 C30.650,19.695 24.955,25.391 17.955,25.391 ZM17.955,1.953 C12.031,1.953 7.212,6.772 7.212,12.695 C7.212,18.619 12.031,23.438 17.955,23.438 C23.878,23.438 28.697,18.619 28.697,12.695 C28.697,6.772 23.878,1.953 17.955,1.953 ZM17.962,22.291 C17.022,22.291 16.072,22.152 15.143,21.867 C14.628,21.709 14.338,21.162 14.496,20.647 C14.654,20.131 15.201,19.841 15.716,19.999 C18.421,20.829 21.344,20.103 23.343,18.104 C24.782,16.665 25.574,14.752 25.574,12.718 C25.574,10.683 24.782,8.770 23.343,7.332 C20.373,4.362 15.541,4.362 12.571,7.332 C10.607,9.296 9.867,12.175 10.642,14.846 C10.792,15.364 10.494,15.906 9.976,16.056 C9.458,16.206 8.916,15.908 8.766,15.390 C7.793,12.035 8.722,8.418 11.190,5.950 C14.921,2.219 20.993,2.219 24.724,5.950 C26.532,7.758 27.528,10.161 27.528,12.718 C27.528,15.274 26.532,17.677 24.724,19.485 C22.900,21.310 20.462,22.291 17.962,22.291 ZM12.566,18.103 C12.949,18.483 12.954,19.098 12.574,19.481 L12.569,19.487 C12.378,19.679 12.127,19.776 11.875,19.776 C11.627,19.776 11.378,19.682 11.188,19.493 C10.805,19.113 10.802,18.495 11.182,18.112 C11.562,17.729 12.183,17.723 12.566,18.103 ZM14.022,8.431 C14.022,7.892 14.459,7.455 14.999,7.455 L16.932,7.455 L16.932,7.130 C16.932,6.591 17.369,6.153 17.909,6.153 C18.448,6.153 18.885,6.591 18.885,7.130 L18.885,7.458 C20.553,7.521 21.892,8.896 21.892,10.580 C21.892,11.412 21.564,12.168 21.033,12.728 C21.564,13.289 21.892,14.045 21.892,14.877 C21.892,16.560 20.553,17.936 18.885,17.999 L18.885,18.313 C18.885,18.852 18.448,19.290 17.909,19.290 C17.369,19.290 16.932,18.852 16.932,18.313 L16.932,18.002 L14.999,18.002 C14.459,18.002 14.022,17.565 14.022,17.025 C14.022,16.525 14.399,16.113 14.883,16.056 L14.883,9.401 C14.399,9.344 14.022,8.932 14.022,8.431 ZM16.836,16.049 L18.767,16.049 C19.413,16.049 19.938,15.523 19.938,14.877 C19.938,14.231 19.413,13.705 18.767,13.705 L16.836,13.705 L16.836,16.049 ZM16.836,11.752 L18.767,11.752 C19.413,11.752 19.938,11.226 19.938,10.580 C19.938,9.934 19.413,9.408 18.767,9.408 L16.836,9.408 L16.836,11.752 Z"/>
</g>
</svg>
