<svg
 xmlns="http://www.w3.org/2000/svg"
 xmlns:xlink="http://www.w3.org/1999/xlink"
 width="59px" height="55px">
<defs>
<filter id="Filter_0">
    <feFlood flood-color="rgb(54, 53, 51)" flood-opacity="1" result="floodOut" />
    <feComposite operator="atop" in="floodOut" in2="SourceGraphic" result="compOut" />
    <feBlend mode="normal" in="compOut" in2="SourceGraphic" />
</filter>

</defs>
<g filter="url(#Filter_0)">
<path fill-rule="evenodd"  fill="rgb(0, 0, 0)"
 d="M26.054,36.739 C26.054,37.379 25.544,37.899 24.916,37.899 L16.527,37.899 C16.087,37.899 15.686,37.640 15.499,37.234 C15.311,36.828 15.369,36.347 15.649,36.001 C18.792,32.104 23.779,24.915 23.779,22.215 C23.779,20.495 22.407,19.095 20.721,19.095 C19.036,19.095 17.664,20.495 17.664,22.215 C17.664,22.856 17.155,23.376 16.527,23.376 C15.899,23.376 15.390,22.856 15.390,22.215 C15.390,19.215 17.782,16.774 20.722,16.774 C23.662,16.774 26.054,19.215 26.054,22.215 C26.054,24.193 24.616,27.289 21.659,31.681 C20.651,33.177 19.652,34.546 18.875,35.578 L24.916,35.578 C25.544,35.578 26.054,36.098 26.054,36.739 ZM37.633,8.866 C41.409,11.180 44.443,14.723 46.178,18.842 C46.426,19.431 46.160,20.114 45.582,20.367 C45.436,20.431 45.284,20.461 45.134,20.461 C44.693,20.461 44.274,20.198 44.089,19.759 C42.540,16.083 39.832,12.921 36.462,10.856 C35.924,10.526 35.749,9.813 36.073,9.263 C36.396,8.714 37.094,8.536 37.633,8.866 ZM33.414,6.938 C34.879,6.938 34.877,9.259 33.414,9.259 C31.948,9.259 31.950,6.938 33.414,6.938 ZM37.457,16.852 C37.895,17.025 38.184,17.455 38.184,17.935 L38.184,27.365 L38.184,36.738 C38.184,37.379 37.675,37.899 37.047,37.899 C36.419,37.899 35.910,37.379 35.910,36.739 L35.910,28.525 L28.658,28.525 C28.208,28.525 27.800,28.255 27.618,27.835 C27.436,27.415 27.513,26.925 27.816,26.585 L36.205,17.154 C36.521,16.799 37.018,16.679 37.457,16.852 ZM35.910,20.939 L31.226,26.204 L35.910,26.204 L35.910,20.939 ZM51.454,36.961 C49.988,36.961 49.990,34.640 51.454,34.640 C52.920,34.640 52.917,36.961 51.454,36.961 ZM52.309,30.277 C53.775,30.277 53.772,32.598 52.309,32.598 C50.843,32.598 50.845,30.277 52.309,30.277 ZM57.666,23.642 L53.241,28.157 C53.239,28.160 53.236,28.162 53.233,28.164 C53.209,28.188 53.184,28.212 53.158,28.233 C53.144,28.245 53.129,28.256 53.115,28.267 C53.100,28.278 53.085,28.290 53.069,28.301 C53.052,28.313 53.035,28.322 53.018,28.333 C53.003,28.342 52.989,28.351 52.973,28.360 C52.956,28.369 52.938,28.377 52.921,28.386 C52.905,28.393 52.889,28.401 52.872,28.409 C52.855,28.416 52.838,28.422 52.821,28.428 C52.803,28.434 52.785,28.441 52.767,28.447 C52.750,28.452 52.733,28.456 52.715,28.460 C52.697,28.465 52.678,28.470 52.659,28.474 C52.639,28.479 52.619,28.481 52.599,28.484 C52.583,28.486 52.566,28.489 52.549,28.491 C52.512,28.495 52.474,28.497 52.437,28.497 C52.400,28.497 52.362,28.495 52.325,28.491 C52.308,28.489 52.292,28.486 52.275,28.484 C52.255,28.481 52.235,28.479 52.215,28.474 C52.196,28.470 52.177,28.465 52.159,28.460 C52.141,28.456 52.124,28.452 52.107,28.447 C52.088,28.441 52.071,28.434 52.053,28.428 C52.036,28.422 52.019,28.416 52.002,28.409 C51.985,28.401 51.969,28.393 51.953,28.386 C51.936,28.377 51.918,28.369 51.901,28.360 C51.885,28.351 51.871,28.342 51.856,28.333 C51.839,28.322 51.822,28.313 51.805,28.301 C51.789,28.290 51.774,28.278 51.759,28.267 C51.745,28.256 51.730,28.245 51.716,28.233 C51.690,28.212 51.665,28.189 51.641,28.164 C51.638,28.162 51.635,28.160 51.633,28.157 L47.208,23.642 C46.764,23.189 46.764,22.454 47.208,22.001 C47.652,21.547 48.373,21.547 48.817,22.001 L51.125,24.356 C49.721,12.340 39.937,2.912 27.924,2.349 L27.924,6.266 C27.924,6.907 27.415,7.427 26.787,7.427 C26.159,7.427 25.650,6.907 25.650,6.266 L25.650,2.349 C13.036,2.940 2.881,13.304 2.302,26.176 L6.140,26.176 C6.768,26.176 7.277,26.696 7.277,27.337 C7.277,27.978 6.768,28.497 6.140,28.497 L2.302,28.497 C2.881,41.369 13.036,51.733 25.650,52.324 L25.650,48.407 C25.650,47.766 26.159,47.247 26.787,47.247 C27.415,47.247 27.924,47.766 27.924,48.407 L27.924,52.323 C31.036,52.181 34.029,51.453 36.849,50.153 C36.150,48.841 35.752,47.339 35.752,45.743 C35.752,40.639 39.822,36.485 44.824,36.485 C49.826,36.485 53.895,40.639 53.895,45.743 C53.895,50.847 49.825,55.000 44.824,55.000 C42.217,55.000 39.866,53.871 38.209,52.069 C34.630,53.796 30.793,54.672 26.787,54.672 C19.632,54.672 12.905,51.829 7.846,46.666 C2.786,41.503 0.000,34.638 0.000,27.336 C0.000,20.035 2.786,13.170 7.846,8.007 C12.905,2.844 19.632,-0.000 26.787,-0.000 C33.942,-0.000 40.669,2.844 45.729,8.007 C50.165,12.535 52.854,18.371 53.448,24.663 L56.057,22.001 C56.502,21.547 57.222,21.547 57.666,22.001 C58.110,22.454 58.110,23.189 57.666,23.642 ZM44.824,52.679 C48.572,52.679 51.620,49.568 51.620,45.743 C51.620,41.918 48.572,38.807 44.824,38.807 C41.076,38.807 38.027,41.918 38.027,45.743 C38.027,49.568 41.076,52.679 44.824,52.679 ZM43.362,41.533 L46.285,41.533 C46.654,41.533 47.000,41.715 47.213,42.022 C47.426,42.329 47.480,42.723 47.358,43.078 L45.257,49.177 C45.093,49.655 44.653,49.953 44.184,49.953 C44.059,49.953 43.932,49.932 43.807,49.887 C43.215,49.675 42.903,49.013 43.111,48.408 L44.680,43.853 L43.362,43.853 C42.734,43.853 42.225,43.334 42.225,42.693 C42.225,42.052 42.734,41.533 43.362,41.533 Z"/>
</g>
</svg>
