<svg
 xmlns="http://www.w3.org/2000/svg"
 xmlns:xlink="http://www.w3.org/1999/xlink"
 width="19px" height="19px">
<path fill-rule="evenodd"  stroke-width="1px" stroke="rgb(255, 221, 45)" fill="rgb(255, 221, 45)"
 d="M8.373,10.244 L5.047,10.244 C4.842,10.244 4.676,10.410 4.676,10.614 C4.676,10.819 4.842,10.984 5.047,10.984 L7.505,10.984 L3.501,14.976 L4.025,15.499 L8.025,11.511 L8.013,13.941 C8.013,14.145 8.179,14.311 8.384,14.311 C8.589,14.311 8.755,14.146 8.755,13.941 L8.755,10.614 C8.755,10.505 8.710,10.416 8.638,10.355 C8.570,10.288 8.477,10.244 8.373,10.244 ZM13.953,8.016 L11.495,8.016 L15.499,4.024 L14.974,3.501 L10.975,7.489 L10.987,5.058 C10.987,4.855 10.821,4.689 10.616,4.689 C10.411,4.689 10.245,4.854 10.245,5.058 L10.245,8.386 C10.245,8.496 10.290,8.584 10.362,8.644 C10.429,8.713 10.522,8.756 10.626,8.756 L13.952,8.756 C14.157,8.756 14.323,8.590 14.323,8.386 C14.323,8.182 14.157,8.016 13.953,8.016 Z"/>
</svg>
