<svg
 xmlns="http://www.w3.org/2000/svg"
 xmlns:xlink="http://www.w3.org/1999/xlink"
 width="14px" height="13px">
<path fill-rule="evenodd"  fill="rgb(252, 219, 45)"
 d="M0.929,5.563 L8.415,5.563 C8.928,5.563 9.344,5.978 9.344,6.491 L9.344,6.509 C9.344,7.022 8.928,7.437 8.415,7.437 L0.929,7.437 C0.416,7.437 0.000,7.022 0.000,6.509 L0.000,6.491 C0.000,5.978 0.416,5.563 0.929,5.563 Z"/>
<path fill-rule="evenodd"  fill="rgb(252, 219, 45)"
 d="M13.486,13.000 L10.083,13.000 C9.800,13.000 9.569,12.751 9.569,12.446 C9.569,12.141 9.800,11.892 10.083,11.892 L12.971,11.892 L12.971,1.108 L10.083,1.108 C9.800,1.108 9.569,0.859 9.569,0.554 C9.569,0.249 9.800,-0.000 10.083,-0.000 L13.486,-0.000 C13.769,-0.000 14.000,0.249 14.000,0.554 L14.000,12.446 C14.000,12.751 13.769,13.000 13.486,13.000 ZM10.949,6.896 L7.906,10.174 C7.806,10.282 7.674,10.337 7.543,10.337 C7.411,10.337 7.280,10.282 7.180,10.174 C6.980,9.955 6.980,9.604 7.180,9.389 L9.346,7.056 L3.740,7.056 C3.454,7.056 3.226,6.806 3.226,6.501 C3.226,6.197 3.457,5.947 3.740,5.947 L9.343,5.947 L7.177,3.614 C6.977,3.395 6.977,3.045 7.177,2.829 C7.380,2.614 7.706,2.614 7.906,2.829 L10.949,6.111 C11.149,6.329 11.149,6.680 10.949,6.896 ZM1.691,7.056 L0.514,7.056 C0.231,7.056 -0.000,6.806 -0.000,6.501 C-0.000,6.197 0.231,5.947 0.514,5.947 L1.691,5.947 C1.974,5.947 2.206,6.197 2.206,6.501 C2.206,6.806 1.974,7.056 1.691,7.056 Z"/>
</svg>
