<svg
 xmlns="http://www.w3.org/2000/svg"
 xmlns:xlink="http://www.w3.org/1999/xlink"
 width="49px" height="43px">
<path fill-rule="evenodd" stroke-width="2px" stroke="#fde35c" fill="#ffffff"
 d="M34.076,37.992 L14.572,37.794 L4.998,21.302 L14.927,5.009 L34.431,5.208 L44.005,21.700 L34.076,37.992 Z"/>
<path fill-rule="evenodd" fill="#fde35c"
 d="M30.884,14.045 L19.577,14.045 L19.577,30.728 L21.854,30.728 L21.854,16.314 L28.608,16.314 C28.608,17.191 28.467,18.014 28.187,18.783 C27.906,19.552 27.498,20.229 26.962,20.814 C25.865,21.983 24.488,22.568 22.830,22.568 L22.830,24.837 C24.373,24.837 25.757,24.455 26.981,23.692 C28.206,22.930 29.163,21.900 29.851,20.604 C30.540,19.307 30.884,17.877 30.884,16.314 L30.884,14.045 Z"/>
</svg>
