<svg
 xmlns="http://www.w3.org/2000/svg"
 xmlns:xlink="http://www.w3.org/1999/xlink"
 width="49px" height="43px">
<path fill-rule="evenodd" stroke-width="2px" stroke="#fde35c" fill="#fff"
 d="M34.076,37.993 L14.572,37.794 L4.998,21.302 L14.927,5.009 L34.431,5.208 L44.005,21.700 L34.076,37.993 Z"/>
<path fill-rule="evenodd" fill="#fde35c"
 d="M20.937,18.787 C20.937,17.874 21.262,17.106 21.913,16.484 C22.537,15.836 23.309,15.513 24.227,15.513 L29.986,15.513 L29.986,13.323 L24.227,13.323 C23.233,13.323 22.321,13.564 21.492,14.046 C20.637,14.541 19.964,15.208 19.473,16.046 C18.982,16.883 18.737,17.791 18.737,18.768 L18.737,21.110 L19.483,21.301 L27.518,23.452 L27.518,24.518 C27.518,25.432 27.193,26.201 26.543,26.822 C25.917,27.470 25.146,27.794 24.227,27.794 L18.469,27.794 L18.469,29.983 L24.227,29.983 C24.470,29.983 24.623,29.977 24.687,29.964 L24.725,29.964 L25.069,29.926 C25.082,29.914 25.120,29.907 25.184,29.907 L25.471,29.850 C25.484,29.837 25.503,29.831 25.528,29.831 L25.605,29.812 L25.662,29.793 L25.854,29.736 L25.988,29.698 L26.102,29.659 C26.306,29.583 26.453,29.520 26.543,29.469 L26.600,29.450 L26.715,29.393 C26.727,29.380 26.746,29.374 26.772,29.374 C26.797,29.348 26.842,29.323 26.906,29.298 L26.963,29.259 C27.002,29.247 27.040,29.222 27.078,29.183 L27.174,29.126 L27.346,29.012 L27.384,28.993 L27.461,28.936 C27.499,28.898 27.537,28.872 27.576,28.860 L27.614,28.822 C27.920,28.568 28.099,28.403 28.150,28.327 L28.245,28.251 L28.303,28.174 L28.341,28.136 C28.430,28.047 28.481,27.984 28.494,27.946 L28.532,27.908 L28.666,27.755 C28.666,27.743 28.679,27.724 28.704,27.698 L28.819,27.527 L28.838,27.470 L28.877,27.432 C28.889,27.394 28.915,27.355 28.953,27.317 C28.953,27.305 28.966,27.286 28.991,27.260 L29.011,27.203 L29.049,27.146 L29.087,27.070 L29.106,27.013 L29.278,26.670 L29.298,26.594 L29.336,26.537 L29.374,26.422 L29.431,26.289 L29.470,26.156 L29.508,26.042 L29.546,25.908 C29.546,25.870 29.553,25.845 29.565,25.832 L29.565,25.775 C29.578,25.763 29.584,25.744 29.584,25.718 L29.584,25.699 C29.597,25.687 29.604,25.667 29.604,25.642 L29.623,25.509 C29.635,25.496 29.642,25.470 29.642,25.432 C29.642,25.407 29.648,25.388 29.661,25.375 C29.661,25.299 29.667,25.255 29.680,25.242 L29.680,25.109 L29.699,25.032 L29.699,24.899 C29.712,24.861 29.718,24.766 29.718,24.614 L29.718,21.739 L27.518,21.187 L20.937,19.416 L20.937,18.787 Z"/>
</svg>
