<svg
 xmlns="http://www.w3.org/2000/svg"
 xmlns:xlink="http://www.w3.org/1999/xlink"
 width="48px" height="43px">
<path fill-rule="evenodd" stroke-width="2px" stroke="#fde35c" fill="rgb(255, 255, 255)"
 d="M33.327,37.992 L14.326,37.794 L4.998,21.302 L14.672,5.009 L33.674,5.208 L43.001,21.700 L33.327,37.992 Z"/>
<path fill-rule="evenodd" fill="#fde35c"
 d="M28.244,29.924 C28.856,29.924 29.378,29.407 29.378,28.749 L29.378,21.042 C29.378,20.572 29.083,20.149 28.675,19.961 C28.244,19.773 27.768,19.867 27.427,20.220 L24.388,23.368 C23.935,23.838 23.935,24.590 24.388,25.037 C24.819,25.507 25.545,25.507 25.976,25.037 L27.110,23.885 L27.110,27.574 L24.094,27.574 C21.531,27.574 19.444,25.413 19.444,22.757 L19.444,19.491 C19.444,16.836 21.531,14.674 24.094,14.674 L28.244,14.674 C28.856,14.674 29.378,14.133 29.378,13.499 C29.378,12.841 28.856,12.324 28.244,12.324 L24.094,12.324 C22.257,12.324 20.510,13.052 19.195,14.416 C17.902,15.778 17.176,17.564 17.176,19.491 L17.176,22.757 C17.176,24.684 17.902,26.470 19.195,27.833 C20.510,29.196 22.257,29.924 24.094,29.924 L28.244,29.924 Z"/>
</svg>
