<svg xmlns="http://www.w3.org/2000/svg" width="20.031" height="19.96" viewBox="0 0 20.031 19.96">
  <metadata><?xpacket begin="﻿" id="W5M0MpCehiHzreSzNTczkc9d"?>
<x:xmpmeta xmlns:x="adobe:ns:meta/" x:xmptk="Adobe XMP Core 5.6-c138 79.159824, 2016/09/14-01:09:01        ">
   <rdf:RDF xmlns:rdf="http://www.w3.org/1999/02/22-rdf-syntax-ns#">
      <rdf:Description rdf:about=""/>
   </rdf:RDF>
</x:xmpmeta>
                                                                                                    
                                                                                                    
                                                                                                    
                                                                                                    
                                                                                                    
                                                                                                    
                                                                                                    
                                                                                                    
                                                                                                    
                                                                                                    
                                                                                                    
                                                                                                    
                                                                                                    
                                                                                                    
                                                                                                    
                                                                                                    
                                                                                                    
                                                                                                    
                                                                                                    
                                                                                                    
                           
<?xpacket end="w"?></metadata>
<defs>
    <style>
      .cls-1 {
        fill: #bac0c4;
        fill-rule: evenodd;
      }
    </style>
  </defs>
  <path id="Forma_1" data-name="Forma 1" class="cls-1" d="M841.023,3551.65a0.954,0.954,0,0,1-.3.84l-2.82,2.8a1.622,1.622,0,0,1-.5.36,2.082,2.082,0,0,1-.605.19,0.873,0.873,0,0,0-.127.01c-0.07,0-.162.01-0.276,0.01a10.237,10.237,0,0,1-1.3-.14,9.845,9.845,0,0,1-2.205-.68,18.466,18.466,0,0,1-2.958-1.62,21.846,21.846,0,0,1-3.521-2.96,23.62,23.62,0,0,1-2.459-2.79,20.319,20.319,0,0,1-1.57-2.47,13.61,13.61,0,0,1-.89-2.05,11.147,11.147,0,0,1-.4-1.59,5.291,5.291,0,0,1-.085-1.05q0.021-.375.021-0.42a2.112,2.112,0,0,1,.191-0.61,1.529,1.529,0,0,1,.36-0.49l2.821-2.82a0.929,0.929,0,0,1,.678-0.3,0.831,0.831,0,0,1,.488.16,1.614,1.614,0,0,1,.361.39l2.269,4.3a1.032,1.032,0,0,1,.106.74,1.308,1.308,0,0,1-.361.68l-1.039,1.04a0.356,0.356,0,0,0-.074.13,0.592,0.592,0,0,0-.032.16,3.8,3.8,0,0,0,.382,1.02,9.408,9.408,0,0,0,.784,1.24,13.255,13.255,0,0,0,1.506,1.68,13.082,13.082,0,0,0,1.7,1.51,9.97,9.97,0,0,0,1.24.8,3.545,3.545,0,0,0,.764.31l0.265,0.05a0.524,0.524,0,0,0,.137-0.03,0.318,0.318,0,0,0,.138-0.08l1.209-1.23a1.32,1.32,0,0,1,.891-0.33,1.161,1.161,0,0,1,.572.12H836.4l4.093,2.42A1.04,1.04,0,0,1,841.023,3551.65Z" transform="translate(-821 -3535.88)"/>
</svg>
