<svg
 xmlns="http://www.w3.org/2000/svg"
 xmlns:xlink="http://www.w3.org/1999/xlink"
 width="14px" height="19px">
<path fill-rule="evenodd" fill="rgb(255, 222, 45)"
 d="M3.568,6.588 C3.568,5.655 3.907,4.872 4.584,4.237 C5.234,3.576 6.037,3.246 6.993,3.246 L12.986,3.246 L12.986,1.011 L6.993,1.011 C5.958,1.011 5.009,1.257 4.146,1.749 C3.256,2.254 2.556,2.935 2.045,3.789 C1.534,4.645 1.279,5.571 1.279,6.569 L1.279,8.959 L2.055,9.153 L10.417,11.349 L10.417,12.437 C10.417,13.370 10.079,14.154 9.402,14.789 C8.751,15.450 7.949,15.780 6.993,15.780 L1.000,15.780 L1.000,18.015 L6.993,18.015 C7.245,18.015 7.404,18.008 7.471,17.995 L7.511,17.995 L7.869,17.956 C7.882,17.944 7.922,17.937 7.988,17.937 L8.287,17.879 C8.300,17.866 8.320,17.859 8.347,17.859 L8.426,17.840 L8.486,17.820 L8.685,17.762 L8.825,17.723 L8.944,17.684 C9.156,17.607 9.309,17.542 9.402,17.490 L9.462,17.471 L9.581,17.412 C9.594,17.400 9.614,17.393 9.641,17.393 C9.667,17.367 9.714,17.341 9.780,17.315 L9.840,17.276 C9.880,17.264 9.920,17.237 9.959,17.199 L10.059,17.140 L10.238,17.023 L10.278,17.004 L10.358,16.946 C10.397,16.907 10.437,16.881 10.477,16.868 L10.517,16.829 C10.836,16.570 11.021,16.402 11.074,16.324 L11.174,16.246 L11.234,16.169 L11.273,16.130 C11.366,16.039 11.419,15.974 11.433,15.935 L11.473,15.896 L11.612,15.741 C11.612,15.728 11.625,15.709 11.652,15.683 L11.771,15.508 L11.791,15.450 L11.831,15.411 C11.844,15.372 11.871,15.333 11.911,15.294 C11.911,15.281 11.924,15.262 11.950,15.236 L11.970,15.178 L12.010,15.119 L12.050,15.041 L12.070,14.983 L12.249,14.633 L12.269,14.556 L12.309,14.497 L12.349,14.380 L12.408,14.244 L12.448,14.108 L12.488,13.992 L12.528,13.856 C12.528,13.817 12.534,13.791 12.548,13.778 L12.548,13.720 C12.561,13.707 12.568,13.688 12.568,13.662 L12.568,13.642 C12.581,13.629 12.588,13.610 12.588,13.584 L12.607,13.448 C12.621,13.435 12.627,13.409 12.627,13.370 C12.627,13.344 12.634,13.325 12.647,13.312 C12.647,13.234 12.654,13.189 12.667,13.176 L12.667,13.040 L12.687,12.962 L12.687,12.826 C12.700,12.787 12.707,12.690 12.707,12.535 L12.707,9.600 L10.417,9.037 L3.568,7.229 L3.568,6.588 Z"/>
</svg>
