<svg
 xmlns="http://www.w3.org/2000/svg"
 xmlns:xlink="http://www.w3.org/1999/xlink"
 width="24px" height="27px">
<path fill-rule="evenodd"  fill="rgb(255, 224, 56)"
 d="M21.864,11.018 L4.598,1.055 C4.179,0.813 3.701,0.684 3.218,0.684 C2.728,0.684 2.246,0.816 1.822,1.064 C0.968,1.564 0.437,2.495 0.437,3.493 L0.437,23.418 C0.437,24.415 0.968,25.346 1.822,25.846 C2.245,26.095 2.728,26.226 3.218,26.226 C3.701,26.226 4.178,26.098 4.598,25.855 L21.864,15.893 C22.728,15.394 23.265,14.460 23.265,13.455 C23.265,12.450 22.728,11.516 21.864,11.018 ZM14.382,8.662 L12.011,11.995 L6.341,4.022 L14.382,8.662 ZM3.109,24.513 C2.955,24.498 2.804,24.453 2.669,24.374 C2.332,24.176 2.123,23.810 2.123,23.418 L2.123,3.492 C2.123,3.100 2.332,2.734 2.669,2.537 C2.803,2.458 2.953,2.411 3.108,2.395 L10.973,13.455 L3.109,24.513 ZM6.341,22.889 L12.011,14.915 L14.382,18.248 L6.341,22.889 ZM21.027,14.414 L15.854,17.398 L13.050,13.455 L15.854,9.511 L21.027,12.496 C21.367,12.692 21.578,13.060 21.578,13.455 C21.578,13.850 21.367,14.218 21.027,14.414 Z"/>
</svg>
