<svg
 xmlns="http://www.w3.org/2000/svg"
 xmlns:xlink="http://www.w3.org/1999/xlink"
 width="36px" height="36px">
<path fill-rule="evenodd"  fill="rgb(205, 208, 210)"
 d="M18.000,-0.000 C8.059,-0.000 -0.000,8.060 -0.000,18.000 C-0.000,27.940 8.059,36.000 18.000,36.000 C27.940,36.000 36.000,27.940 36.000,18.000 C36.000,8.058 27.940,-0.000 18.000,-0.000 ZM22.654,17.998 L19.703,18.000 L19.701,28.800 L15.653,28.800 L15.653,18.000 L12.953,18.000 L12.953,14.279 L15.653,14.277 L15.649,12.085 C15.649,9.047 16.472,7.201 20.048,7.201 L23.027,7.201 L23.027,10.924 L21.164,10.924 C19.771,10.924 19.703,11.443 19.703,12.414 L19.699,14.277 L23.047,14.277 L22.654,17.998 Z"/>
</svg>
