<svg
 xmlns="http://www.w3.org/2000/svg"
 xmlns:xlink="http://www.w3.org/1999/xlink"
 width="36px" height="36px">
<path fill-rule="evenodd"  fill="rgb(203, 206, 207)"
 d="M17.999,35.995 C8.077,35.995 0.004,27.922 0.004,17.999 C0.004,8.077 8.077,0.004 17.999,0.004 C27.922,0.004 35.994,8.077 35.994,17.999 C35.994,27.922 27.922,35.995 17.999,35.995 ZM28.233,15.899 L28.233,11.721 C28.233,9.540 26.459,7.766 24.277,7.766 L11.720,7.766 C9.539,7.766 7.765,9.540 7.765,11.721 L7.765,15.899 L7.765,24.278 C7.765,26.461 9.539,28.235 11.720,28.235 L24.278,28.235 C26.459,28.235 28.233,26.461 28.233,24.278 L28.233,15.899 ZM24.276,26.238 L11.720,26.238 C10.638,26.238 9.758,25.361 9.758,24.278 L9.758,15.899 L12.814,15.899 C12.550,16.547 12.402,17.257 12.402,17.999 C12.402,21.085 14.912,23.597 17.999,23.597 C21.086,23.597 23.596,21.085 23.596,17.999 C23.596,17.257 23.446,16.547 23.182,15.899 L26.238,15.899 L26.238,24.278 C26.238,25.361 25.359,26.238 24.276,26.238 ZM22.395,10.134 L25.413,10.124 L25.865,10.123 L25.865,10.572 L25.865,13.592 L22.407,13.604 L22.395,10.134 ZM17.998,21.602 C16.012,21.602 14.395,19.985 14.396,17.998 C14.397,17.214 14.651,16.490 15.077,15.898 C15.733,14.991 16.797,14.397 17.999,14.397 C19.201,14.397 20.265,14.992 20.920,15.899 C21.346,16.491 21.602,17.215 21.602,17.999 C21.602,19.986 19.984,21.602 17.998,21.602 Z"/>
</svg>
