<svg
 xmlns="http://www.w3.org/2000/svg"
 xmlns:xlink="http://www.w3.org/1999/xlink"
 width="36px" height="36px">
<path fill-rule="evenodd"  fill="rgb(203, 206, 207)"
 d="M17.999,0.004 C8.077,0.004 0.004,8.077 0.004,17.999 C0.004,27.922 8.077,35.995 17.999,35.995 C27.922,35.995 35.994,27.922 35.994,17.999 C35.994,8.077 27.922,0.004 17.999,0.004 ZM26.027,13.881 C26.035,14.059 26.039,14.239 26.039,14.418 C26.039,19.892 21.874,26.202 14.254,26.202 C11.915,26.202 9.737,25.518 7.905,24.341 C8.229,24.380 8.559,24.400 8.893,24.400 C10.834,24.400 12.619,23.737 14.037,22.627 C12.225,22.593 10.695,21.396 10.168,19.750 C10.420,19.799 10.680,19.824 10.946,19.824 C11.324,19.824 11.691,19.774 12.038,19.679 C10.143,19.299 8.716,17.625 8.716,15.619 C8.716,15.602 8.716,15.583 8.717,15.567 C9.275,15.876 9.913,16.063 10.592,16.084 C9.481,15.343 8.750,14.074 8.750,12.637 C8.750,11.878 8.954,11.166 9.310,10.554 C11.352,13.061 14.405,14.709 17.847,14.883 C17.776,14.579 17.740,14.264 17.740,13.938 C17.740,11.652 19.595,9.797 21.882,9.797 C23.073,9.797 24.150,10.300 24.905,11.104 C25.849,10.919 26.735,10.575 27.536,10.099 C27.226,11.067 26.570,11.878 25.714,12.391 C26.552,12.291 27.351,12.069 28.093,11.739 C27.539,12.568 26.836,13.299 26.027,13.881 Z"/>
</svg>
