<svg
 xmlns="http://www.w3.org/2000/svg"
 xmlns:xlink="http://www.w3.org/1999/xlink"
 width="35px" height="35px">
<path fill-rule="evenodd"  fill="rgb(205, 208, 210)"
 d="M17.500,0.001 C7.836,0.001 0.001,7.836 0.001,17.500 C0.001,27.165 7.836,34.999 17.500,34.999 C27.165,34.999 34.999,27.165 34.999,17.500 C34.999,7.836 27.165,0.001 17.500,0.001 ZM26.377,19.393 C27.193,20.189 28.056,20.939 28.788,21.818 C29.112,22.207 29.418,22.609 29.651,23.062 C29.983,23.706 29.683,24.413 29.105,24.452 L25.521,24.451 C24.595,24.527 23.858,24.154 23.237,23.521 C22.741,23.017 22.281,22.478 21.803,21.956 C21.608,21.742 21.402,21.540 21.158,21.382 C20.669,21.064 20.244,21.161 19.964,21.672 C19.679,22.191 19.614,22.767 19.587,23.345 C19.548,24.191 19.293,24.411 18.444,24.451 C16.632,24.536 14.912,24.261 13.314,23.347 C11.904,22.541 10.813,21.404 9.862,20.115 C8.010,17.605 6.592,14.850 5.318,12.015 C5.031,11.377 5.241,11.035 5.945,11.022 C7.115,10.999 8.285,11.002 9.455,11.021 C9.931,11.028 10.247,11.301 10.429,11.750 C11.062,13.305 11.837,14.786 12.808,16.158 C13.067,16.524 13.331,16.889 13.708,17.147 C14.123,17.432 14.440,17.337 14.635,16.874 C14.761,16.579 14.815,16.264 14.842,15.948 C14.935,14.867 14.946,13.785 14.785,12.708 C14.685,12.034 14.306,11.598 13.634,11.471 C13.291,11.406 13.341,11.279 13.508,11.084 C13.797,10.746 14.068,10.537 14.608,10.537 L18.659,10.536 C19.297,10.661 19.441,10.948 19.527,11.591 L19.531,16.092 C19.523,16.341 19.656,17.079 20.102,17.242 C20.460,17.360 20.697,17.073 20.911,16.846 C21.882,15.815 22.574,14.599 23.194,13.339 C23.467,12.784 23.703,12.209 23.933,11.634 C24.103,11.208 24.368,10.998 24.849,11.006 L28.749,11.010 C28.864,11.010 28.981,11.011 29.094,11.031 C29.752,11.144 29.932,11.426 29.728,12.068 C29.408,13.075 28.786,13.914 28.178,14.755 C27.526,15.657 26.832,16.526 26.186,17.431 C25.594,18.258 25.641,18.675 26.377,19.393 Z"/>
</svg>
